<svg fill="none" height="64" viewBox="0 0 64 64" width="64" xmlns="http://www.w3.org/2000/svg"><g fill="#000"><path d="m32 2c-1.1046 0-2 .89543-2 2v8c0 1.1046.8954 2 2 2s2-.8954 2-2v-5.92422c13.4249 1.02125 24 12.23772 24 25.92422 0 14.3594-11.6406 26-26 26s-26-11.6406-26-26c0-6.3394 2.26626-12.1443 6.035-16.6564.7081-.8477.5949-2.109-.2529-2.8171-.8478-.708-2.10901-.5948-2.8171.2529-4.34721 5.2047-6.965 11.9096-6.965 19.2206 0 16.5685 13.4315 30 30 30s30-13.4315 30-30-13.4315-30-30-30z"/><path d="m24.4142 21.5858c-.781-.7811-2.0474-.7811-2.8284 0-.7811.781-.7811 2.0474 0 2.8284l9 9c.781.7811 2.0474.7811 2.8284 0 .7811-.781.7811-2.0474 0-2.8284z"/></g></svg>