<svg height="512" viewBox="0 0 128 128" width="512" xmlns="http://www.w3.org/2000/svg"><g><g fill="#27276d"><path d="m27.347 59.75a6.6 6.6 0 0 1 -6.6-6.6 1.75 1.75 0 1 0 -3.5 0 10.108 10.108 0 0 0 10.1 10.1 1.75 1.75 0 1 0 0-3.5z"/><path d="m80.205 60.7a1.75 1.75 0 1 0 2.475 2.474 2.8 2.8 0 0 1 3.955 0 1.749 1.749 0 0 0 2.474-2.474 6.3 6.3 0 0 0 -8.904 0z"/><path d="m109 60.18h-5.116a29.539 29.539 0 0 0 -8.534-11.336v-12.194a1.751 1.751 0 0 0 -1.75-1.75h-1.93a10.182 10.182 0 0 0 -9.9 7.758 29.567 29.567 0 0 0 -4.959-.418h-5.121a1.751 1.751 0 0 0 -1.669 1.225 15.783 15.783 0 0 1 -3.553 6.046 56.822 56.822 0 0 0 -9.694-.177 54.836 54.836 0 0 0 -11.251 1.866 15.612 15.612 0 0 1 -4.084-4.736 1.747 1.747 0 0 0 -2.364-.687 29.395 29.395 0 0 0 .875 52.145v8.653a1.75 1.75 0 0 0 1.75 1.75h13.75a1.75 1.75 0 0 0 1.75-1.75v-5.56h13.6v5.56a1.75 1.75 0 0 0 1.75 1.75h13.75a1.75 1.75 0 0 0 1.75-1.75v-7.799a29.223 29.223 0 0 0 17.088-19.356h3.862a1.75 1.75 0 0 0 1.75-1.75v-15.74a1.75 1.75 0 0 0 -1.75-1.75zm-1.75 15.74h-3.48a1.749 1.749 0 0 0 -1.708 1.369 25.761 25.761 0 0 1 -16.362 18.648 1.75 1.75 0 0 0 -1.15 1.643v7.24h-10.25v-5.56a1.749 1.749 0 0 0 -1.75-1.75h-17.1a1.749 1.749 0 0 0 -1.75 1.75v5.56h-10.25v-8.01a1.751 1.751 0 0 0 -1.032-1.6 25.889 25.889 0 0 1 -3.095-45.535 19.261 19.261 0 0 0 4.871 4.88 1.754 1.754 0 0 0 1.515.233 50.076 50.076 0 0 1 11.291-1.962 52.321 52.321 0 0 1 9.884.26 1.749 1.749 0 0 0 1.436-.475 19.375 19.375 0 0 0 4.6-6.871h3.89a26.025 26.025 0 0 1 6.015.7 1.752 1.752 0 0 0 2.154-1.625 6.693 6.693 0 0 1 6.691-6.415h.18v11.29a1.752 1.752 0 0 0 .683 1.387 26.061 26.061 0 0 1 8.53 11.469 1.748 1.748 0 0 0 1.637 1.134h4.55z"/></g><g fill="#fd5c70"><path d="m54.068 33.335h2.011a1.367 1.367 0 0 1 1.365 1.365 1.75 1.75 0 0 0 3.5 0 4.871 4.871 0 0 0 -4.865-4.865h-2.011a4.87 4.87 0 0 0 -4.868 4.865v.633a4.9 4.9 0 0 0 3.75 4.767l3.418.834a1.4 1.4 0 0 1 1.076 1.369 2 2 0 0 1 -2 2h-1.376a1.366 1.366 0 0 1 -1.368-1.364 1.75 1.75 0 0 0 -3.5 0 4.87 4.87 0 0 0 4.868 4.861h1.378a5.5 5.5 0 0 0 5.5-5.5 4.9 4.9 0 0 0 -3.746-4.763l-3.42-.837a1.407 1.407 0 0 1 -1.076-1.37v-.63a1.367 1.367 0 0 1 1.364-1.365z"/><path d="m55.074 27.3a1.749 1.749 0 0 0 -1.75 1.75v2.533a1.75 1.75 0 0 0 3.5 0v-2.531a1.749 1.749 0 0 0 -1.75-1.752z"/></g><path d="m55.07 19.68a19.141 19.141 0 0 0 -10.876 34.879 1.751 1.751 0 0 0 1 .311 1.775 1.775 0 0 0 .519-.078 50.076 50.076 0 0 1 11.287-1.966 52.321 52.321 0 0 1 9.884.26 1.749 1.749 0 0 0 1.436-.475 19.324 19.324 0 0 0 5.037-8.1 19.157 19.157 0 0 0 -18.287-24.831zm14.951 23.785a15.783 15.783 0 0 1 -3.553 6.046 56.818 56.818 0 0 0 -9.694-.177 54.836 54.836 0 0 0 -11.251 1.866 15.626 15.626 0 1 1 24.5-7.73z" fill="#fd5c70"/></g><path d="m73 50.806a46.825 46.825 0 0 0 -16.216-1.471c-7.089.459-13.666 2.118-17.592 4.438a1.75 1.75 0 1 0 1.781 3.014c3.475-2.054 9.47-3.534 16.038-3.959a43.218 43.218 0 0 1 14.932 1.315 1.75 1.75 0 0 0 1.057-3.337z" fill="#27276d"/></svg>