<?xml version="1.0" encoding="UTF-8"?>
<svg id="LIne" xmlns="http://www.w3.org/2000/svg" version="1.1" viewBox="0 0 512 512">
  <!-- Generator: Adobe Illustrator 29.3.1, SVG Export Plug-In . SVG Version: 2.1.0 Build 151)  -->
  <defs>
    <style>
      .st0 {
        fill: #fff;
      }
    </style>
  </defs>
  <path class="st0" d="M256,490.7c-129.6,0-234.7-105.1-234.7-234.7S126.4,21.3,256,21.3s234.7,105.1,234.7,234.7-105.1,234.7-234.7,234.7ZM256,64c-106,0-192,86-192,192s86,192,192,192,192-86,192-192-86-192-192-192ZM256,405.3c-17.7,0-32-14.3-32-32s14.3-32,32-32,32,14.3,32,32-14.3,32-32,32ZM256,320c-11.8,0-21.3-9.6-21.3-21.3.5-33.4,16.2-64.8,42.7-85.3,10.9-8.7,15.7-22.9,12.4-36.5-2.7-12.9-12.4-23.2-25.2-26.5-19-4.8-38.2,6.6-43.1,25.6-.7,2.9-1.1,6-1.1,9,0,11.8-9.6,21.3-21.3,21.3s-21.3-9.6-21.3-21.3c.3-43.2,35.6-78.1,78.8-77.8,43.2.3,78.1,35.6,77.8,78.8-.2,23.2-10.6,45.2-28.6,60-17.1,12.2-27.6,31.7-28.4,52.7,0,11.8-9.6,21.3-21.3,21.3Z"/>
</svg>