<svg id="Layer_1" height="512" viewBox="0 0 24 24" width="512" xmlns="http://www.w3.org/2000/svg" data-name="Layer 1"><g><path d="m22.906 9.537-1.3-5.453a2.272 2.272 0 0 0 -1.693-1.692l-5.451-1.3a2.277 2.277 0 0 0 -2.047.515l-10.615 9.44a2.293 2.293 0 0 0 -.766 1.641 2.263 2.263 0 0 0 .666 1.682l7.93 7.93a2.262 2.262 0 0 0 1.613.67h.07a2.292 2.292 0 0 0 1.64-.766l9.438-10.618a2.281 2.281 0 0 0 .515-2.049zm-11.623 12.431a1.249 1.249 0 0 1 -.946-.376l-7.929-7.929a1.286 1.286 0 0 1 .054-1.869l.479-.426 9.691 9.691-.426.479a1.272 1.272 0 0 1 -.923.43zm10.361-11.049-8.344 9.391-9.61-9.61 9.391-8.348a1.289 1.289 0 0 1 .854-.324 1.241 1.241 0 0 1 .3.035l5.453 1.3a1.282 1.282 0 0 1 .952.952l1.3 5.453a1.282 1.282 0 0 1 -.296 1.151z"/><path d="m15.564 5.607a2 2 0 1 0 2.829 0 2.05 2.05 0 0 0 -2.829 0zm2.122 2.122a1.028 1.028 0 0 1 -1.415 0 1 1 0 0 1 .708-1.708.993.993 0 0 1 .707.293 1 1 0 0 1 0 1.415z"/><path d="m13.09 13.032a.5.5 0 0 0 -.707.707l2.117 2.121a.5.5 0 0 0 .707-.707z"/><path d="m8.847 11.618a.5.5 0 0 0 -.707.707l4.95 4.949a.5.5 0 0 0 .707-.707z"/></g></svg>