<svg id="Outline" viewBox="0 0 512 512" xmlns="http://www.w3.org/2000/svg"><g id="Outline-2" data-name="Outline"><path d="m482 306.1v-106.1c0-13.88-3.67-27.36-10.62-39.26l18.07-24.94c11.91-16.44 8.24-39.38-8.2-51.29l-98.48-71.34c-16.4-11.88-39.41-8.2-51.29 8.2l-12.18 16.81-34.53-25.01c-16.4-11.88-39.41-8.2-51.29 8.2l-72.89 100.63h-76.59c-43.01 0-78 34.99-78 78v228c0 43.01 34.99 78 78 78h320c43.01 0 78-34.99 78-78v-20.1c13.68-2.79 24-14.91 24-29.4v-43c0-14.49-10.32-26.61-24-29.4zm-12-104.1h-28.51l22.06-30.45c4.24 8.84 6.45 18.53 6.45 28.45zm-128.8-173.59c8-11.04 23.49-13.52 34.53-5.52l98.48 71.33c11.07 8.01 13.54 23.46 5.52 34.53l-53.05 73.24h-18.3l43.51-60.07c1.86-2.58 1.51-6.16-.8-8.32-9.57-9.02-11.84-23.41-5.52-34.99 1.53-2.8.73-6.32-1.85-8.17l-54.91-39.77c-2.57-1.86-6.15-1.53-8.34.79-9.04 9.61-23.42 11.95-34.91 5.69-.07-.04-.16-.08-.24-.11l-16.32-11.82 12.18-16.81zm42.05 56.09-17.18-12.45c7.06-1.18 13.82-4.19 19.5-8.93l47.34 34.29c-5.51 13.9-3 29.76 6.52 41.25l-45.87 63.32h-50.07l47.95-66.2c11.91-16.44 8.24-39.38-8.2-51.29zm-140.05-56.09c8-11.04 23.49-13.52 34.53-5.52l98.48 71.33c11.07 8.01 13.54 23.46 5.52 34.53l-53.05 73.24h-18.3l43.51-60.07c1.86-2.58 1.51-6.16-.8-8.32-9.57-9.02-11.84-23.41-5.52-34.99 1.53-2.8.73-6.32-1.85-8.17l-54.91-39.77c-2.57-1.86-6.15-1.53-8.34.79-9.04 9.62-23.42 11.94-34.97 5.66-2.8-1.52-6.31-.71-8.16 1.85l-103.6 143.02h-18.3zm44.37 34.72 47.34 34.29c-5.51 13.9-3 29.76 6.52 41.25l-45.87 63.32h-144.99l95.76-132.21c13.89 5.47 29.74 2.91 41.23-6.66zm-203.57 70.87h67.9l-49.26 68h-5.14c-6.89 0-12.5-5.61-12.5-12.5s5.61-12.5 12.5-12.5c3.31 0 6-2.69 6-6s-2.69-6-6-6c-13.51 0-24.5 10.99-24.5 24.5s10.99 24.5 24.5 24.5h372.5v43h-386c-34.65 0-63.48-26.95-65.84-61.42 2.29-34.34 30.93-61.58 65.84-61.58zm-66 98.52c13.87 21.96 38.36 36.48 66 36.48h386v36.5h-104c-16.54 0-30 13.46-30 30v43c0 16.54 13.46 30 30 30h104c0 19.83.41 24.67-1.51 33.5h-384.49c-36.39 0-66-29.61-66-66zm386 261.48h-320c-36.39 0-66-29.61-66-66v-10.51c13.82 21.91 38.23 36.51 66 36.51h380.65c-10.11 23.5-33.49 40-60.65 40zm90-115.5c0 9.92-8.08 18-18 18h-110c-9.92 0-18-8.08-18-18v-43c0-9.92 8.08-18 18-18h110c9.92 0 18 8.08 18 18z"/><path d="m391 336c-11.58 0-21 9.42-21 21s9.42 21 21 21 21-9.42 21-21-9.42-21-21-21zm0 30c-4.96 0-9-4.04-9-9s4.04-9 9-9 9 4.04 9 9-4.04 9-9 9z"/></g></svg>