<svg id="Layer_1" enable-background="new 0 0 48 48" viewBox="0 0 48 48" xmlns="http://www.w3.org/2000/svg"><path d="m43.55 12.6h-2.23l.4-.9c.17-.38 0-.82-.38-.99l-22.76-10.14c-.38-.17-.82 0-.99.38l-5.19 11.65h-5.41c-1.51 0-2.74 1.23-2.74 2.74v3.76c-1.25.34-2.18 1.48-2.18 2.84v6.28c-.9.18-1.57.97-1.57 1.91v6.23c0 .94.67 1.73 1.57 1.91v6.28c0 1.63 1.33 2.95 2.95 2.95h37.53c2.73 0 4.96-2.22 4.96-4.95v-26c-.01-2.18-1.78-3.95-3.96-3.95zm0 1.5c1.35 0 2.45 1.1 2.45 2.45s-1.1 2.45-2.45 2.45h-5.08l2.18-4.89h2.9zm-24.89-11.86 21.39 9.53-3.23 7.23h-2.88l.93-2.12c.17-.38-.01-.82-.38-.99-1.24-.55-1.79-2-1.24-3.24.17-.38 0-.82-.38-.99l-9.33-4.16c-.18-.08-.39-.09-.57-.02-.19.07-.34.21-.42.4-.27.6-.75 1.06-1.36 1.29-.61.24-1.28.22-1.88-.05-.37-.17-.8-.01-.98.35l-4.67 9.52h-2.47zm14.57 14.65-.92 2.11h-16.98l4.05-8.27c.77.19 1.58.14 2.34-.16.75-.29 1.38-.78 1.83-1.43l8.09 3.6c-.37 1.58.27 3.23 1.59 4.15zm-27.48-1.55c0-.69.56-1.24 1.24-1.24h4.74l-2.18 4.89h-3.8zm-3.31 21.47c-.24 0-.44-.2-.44-.45v-6.23c0-.24.2-.44.44-.44h13.86c1.96 0 3.56 1.6 3.56 3.56s-1.6 3.56-3.56 3.56zm43.56 5.74c0 1.9-1.55 3.45-3.46 3.45h-37.52c-.8 0-1.45-.65-1.45-1.45v-6.24h12.73c2.79 0 5.06-2.27 5.06-5.06s-2.27-5.06-5.06-5.06h-12.73v-6.24c0-.8.65-1.45 1.45-1.45h38.53c.93 0 1.77-.34 2.45-.88z"/><path d="m18.62 33.25c0-1.44-1.17-2.61-2.61-2.61s-2.61 1.17-2.61 2.61 1.17 2.61 2.61 2.61 2.61-1.17 2.61-2.61zm-2.61 1.11c-.61 0-1.11-.5-1.11-1.11s.5-1.11 1.11-1.11 1.11.5 1.11 1.11-.5 1.11-1.11 1.11z"/></svg>