<svg id="svg15541" height="8.467mm" viewBox="0 0 8.46667 8.46667" width="8.467mm" xmlns="http://www.w3.org/2000/svg" xmlns:svg="http://www.w3.org/2000/svg"><g id="layer1" stroke-linecap="round" stroke-linejoin="round" transform="translate(-114.063 -100.22)"><path id="path15766" d="m116.70898 101.80664c-.65443 0-1.19141.53698-1.1914 1.19141 0 .65442.53698 1.1914 1.1914 1.1914.65443 0 1.19141-.53698 1.19141-1.1914.00001-.65443-.53697-1.19141-1.19141-1.19141zm0 .5293c.36845 0 .66212.29366.66211.66211 0 .36844-.29366.6621-.66211.66211-.36844-.00001-.6621-.29367-.6621-.66211-.00001-.36845.29365-.66211.6621-.66211z"/><path id="path15769" d="m116.70898 104.45313c-.85838-.00002-1.58789.59566-1.58789 1.32226v.5293c0 .43524.35969.79492.79493.79492h1.58593c.43524 0 .79492-.35968.79493-.79492v-.5293c0-.72659-.72953-1.32225-1.5879-1.32226zm0 .52929c.60288.00001 1.0586.46123 1.0586.79297v.5293c0 .14925-.11637.26562-.26563.26562h-1.58593c-.14927 0-.26563-.11637-.26563-.26562v-.5293c0-.33174.45572-.79298 1.05859-.79297z"/><path id="path15772" d="m118.29688 101.80664a.2645835.2645835 0 0 0 -.26563.26563.2645835.2645835 0 0 0 .26563.26367h1.58789c.58763 0 1.05859.47095 1.05859 1.05859v2.11719c0 .58763-.47096 1.05859-1.05859 1.05859h-.79493a.2645835.2645835 0 0 0 -.26367.26367.2645835.2645835 0 0 0 .26367.26563h.79493c.87362 0 1.58593-.71428 1.58593-1.58789v-2.11719c0-.87362-.71231-1.58789-1.58593-1.58789z"/><path id="path15775" d="m118.82617 103.13086a.2645835.2645835 0 0 0 -.26562.26367.2645835.2645835 0 0 0 .26562.26563h1.0586a.2645835.2645835 0 0 0 .26367-.26563.2645835.2645835 0 0 0 -.26367-.26367z"/><path id="path15778" d="m118.82617 104.18945a.2645835.2645835 0 0 0 -.26562.26368.2645835.2645835 0 0 0 .26562.26562h1.0586a.2645835.2645835 0 0 0 .26367-.26562.2645835.2645835 0 0 0 -.26367-.26368z"/><path id="path15781" d="m119.35547 105.24805a.2645835.2645835 0 0 0 -.26563.26367.2645835.2645835 0 0 0 .26563.26367h.5293a.2645835.2645835 0 0 0 .26367-.26367.2645835.2645835 0 0 0 -.26367-.26367z"/></g></svg>