<?xml version="1.0" encoding="UTF-8"?>
<svg id="Capa_1" xmlns="http://www.w3.org/2000/svg" version="1.1" viewBox="0 0 512 512">
  <!-- Generator: Adobe Illustrator 29.3.1, SVG Export Plug-In . SVG Version: 2.1.0 Build 151)  -->
  <path d="M350.8,44.6h-189.5c-31,0-56.2,25.2-56.2,56.2v310.4c0,31,25.2,56.2,56.2,56.2h189.5c31,0,56.2-25.2,56.2-56.2V100.8c0-31-25.2-56.2-56.2-56.2h0ZM376.8,411.2c0,14.4-11.7,26-26,26h-189.5c-14.4,0-26-11.7-26-26V100.8c0-14.4,11.7-26,26-26h189.5c14.4,0,26,11.7,26,26v310.4Z"/>
  <path d="M286.2,376.8h-60.4c-8.3,0-15.1,6.8-15.1,15.1s6.8,15.1,15.1,15.1h60.4c8.3,0,15.1-6.8,15.1-15.1s-6.8-15.1-15.1-15.1Z"/>
</svg>