<svg fill="none" height="512" viewBox="0 0 512 512" width="512" xmlns="http://www.w3.org/2000/svg"><g clip-rule="evenodd" fill="#000" fill-rule="evenodd"><path d="m122.916 210.874c5.799 0 10.5 4.701 10.5 10.5v178.626c0 5.799-4.701 10.5-10.5 10.5s-10.5-4.701-10.5-10.5v-178.626c0-5.799 4.701-10.5 10.5-10.5z"/><path d="m212.471 210.874c5.799 0 10.5 4.701 10.5 10.5v178.626c0 5.799-4.701 10.5-10.5 10.5s-10.5-4.701-10.5-10.5v-178.626c0-5.799 4.701-10.5 10.5-10.5z"/><path d="m302.025 210.874c5.799 0 10.5 4.701 10.5 10.5v178.626c0 5.799-4.701 10.5-10.5 10.5s-10.5-4.701-10.5-10.5v-178.626c0-5.799 4.701-10.5 10.5-10.5z"/><path d="m391.584 210.874c5.799 0 10.5 4.701 10.5 10.5v178.626c0 5.799-4.701 10.5-10.5 10.5s-10.5-4.701-10.5-10.5v-178.626c0-5.799 4.701-10.5 10.5-10.5z"/><path d="m465 176.136-208.064-120.8755-209.936 120.9265v23.813h418zm-428.9827-17.857c-6.1978 3.57-10.0173 10.178-10.0173 17.33v25.391c0 11.046 8.9543 20 20 20h420c11.046 0 20-8.954 20-20v-25.44c0-7.126-3.792-13.714-9.953-17.293l-209.062-121.4552c-6.189-3.5954-13.827-3.6095-20.03-.037z"/><path d="m436 413h-360c-16.0163 0-29 12.984-29 29v17h418v-17c0-16.016-12.984-29-29-29zm-360-21c-27.6142 0-50 22.386-50 50v38h460v-38c0-27.614-22.386-50-50-50z"/></g></svg>