<svg fill="none" height="24" viewBox="0 0 24 24" width="24" xmlns="http://www.w3.org/2000/svg"><g fill="rgb(0,0,0)"><path clip-rule="evenodd" d="m7.25017 15.0507c-.00827.3441.21875.6497.55059.7411s.68331-.0548.85243-.3546l.9023-1.5995c1.07011-1.897 3.20031-2.9362 5.35401-2.6121l.1493.0225c.0268.6778.0649 1.3554.1143 2.0323l.0678.9306c.0552.7568.8991 1.1799 1.5385.7713 2.0977-1.3404 3.9213-3.0674 5.3736-5.0892l.4561-.63494c.1878-.26147.1878-.61365 0-.87513l-.4561-.63493c-1.4523-2.02176-3.2759-3.74885-5.3736-5.08921-.6394-.40858-1.4833.01449-1.5385.7713l-.0678.93064c-.0398.54573-.0723 1.09186-.0974 1.63824h-1.0182c-3.6647 0-6.66001 2.9241-6.74809 6.58773zm7.88253-5.30838c-2.4193-.36412-4.8155.60988-6.29981 2.48828.26162-2.66312 2.50631-4.73153 5.22461-4.73153h1.7387c.4042 0 .7357-.32036.7495-.72436.0263-.7688.0675-1.53722.1234-2.30482l.0054-.07446c1.6435 1.16166 3.0838 2.59005 4.2602 4.2278l.1418.19737-.1418.19737c-1.1764 1.63773-2.6167 3.06613-4.2602 4.22783l-.0054-.0745c-.063-.8639-.1072-1.7288-.1326-2.5941-.0106-.3626-.2793-.66564-.638-.71963z" fill-rule="evenodd"/><path d="m19.6413 17.4113c.1179-1.0083.2012-2.0197.2497-3.0323.0053-.1096.055-.2123.1373-.2849.3633-.3208.7154-.6541 1.0556-.9993.1279-.1299.3515-.0391.3475.1432-.0312 1.4519-.1313 2.9027-.3003 4.3475-.2365 2.0226-1.8608 3.6076-3.8729 3.8325-3.4666.3874-7.0499.3874-10.51649 0-2.01206-.2249-3.63639-1.8099-3.87295-3.8325-.41453-3.5443-.41453-7.1248 0-10.6691.23656-2.02253 1.86089-3.60754 3.87295-3.83241 2.29097-.25605 4.63299-.34289 6.95849-.2605.1958.00693.3306.19861.3062.39301-.0051.04048-.0092.08143-.0122.12282l-.0513.70382c-.0117.16159-.1497.28453-.3116.27885-2.2471-.07884-4.51018.0054-6.72298.25271-1.33011.14866-2.3956 1.19828-2.54971 2.51595-.401 3.42855-.401 6.89215 0 10.32065.15411 1.3177 1.2196 2.3673 2.54971 2.5159 3.35588.3751 6.82738.3751 10.18328 0 1.3301-.1486 2.3956-1.1982 2.5497-2.5159z"/></g></svg>