<svg id="Capa_1" enable-background="new 0 0 512 512" height="512" viewBox="0 0 512 512" width="512" xmlns="http://www.w3.org/2000/svg"><g><g id="layer2_00000106136260147046444420000017334641091214829445_" transform="translate(-382.659 -82)"><g id="g28352" fill="rgb(0,0,0)" transform="translate(380 80)"><path id="rect25883" d="m222.088 2c-30.075 0-54.857 24.783-54.857 54.857v23.036c-3.176 1.635-6.308 3.341-9.393 5.143-6.438-4.131-13.054-8.309-19.429-12.357-25.332-16.188-59.555-8.7-75.75 16.643l-39.393 61.643c-16.188 25.332-8.7 59.555 16.643 75.75l19.215 12.285c-.63 6.292-1.572 12.564-1.572 19 0 6.435.942 12.708 1.572 19l-19.214 12.286c-25.343 16.194-32.83 50.418-16.643 75.75l39.393 61.643c16.195 25.343 50.418 32.831 75.75 16.643 6.397-4.007 12.981-8.244 19.429-12.357 3.085 1.802 6.216 3.508 9.393 5.143v23.036c0 30.075 24.783 54.857 54.857 54.857h73.143c30.075 0 54.857-24.783 54.857-54.857v-23.036c3.177-1.635 6.308-3.341 9.393-5.143 6.436 4.131 13.057 8.31 19.429 12.356 25.332 16.188 59.555 8.7 75.75-16.643l39.393-61.643c16.188-25.332 8.7-59.555-16.643-75.75l-19.214-12.286c.63-6.292 1.573-12.564 1.585-18.989.013-6.425-.865-12.745-1.478-19.086l19.107-12.214c25.343-16.195 32.83-50.418 16.643-75.75l-39.393-61.639c-16.195-25.343-50.418-32.83-75.75-16.643l-19.179 12.25c-3.165-1.842-6.382-3.583-9.643-5.25v-22.821c-.001-30.074-24.784-54.857-54.858-54.857zm0 36.571h73.143c10.447 0 18.286 7.839 18.286 18.286v33.607c-.005 7.287 4.316 13.882 11 16.786 9.019 3.922 17.646 8.641 25.821 14.107 6.049 4.038 13.916 4.109 20.036.179l28.25-18.071c8.813-5.631 19.625-3.231 25.25 5.571l39.393 61.643c5.631 8.813 3.23 19.625-5.571 25.25l-28.321 18.107c-6.132 3.918-9.358 11.099-8.214 18.286 1.358 8.504 2.06 17.102 2.071 25.714-.055 8.545-.764 17.066-2.143 25.5-1.182 7.203 2.033 14.419 8.179 18.357l28.429 18.179c8.802 5.625 11.203 16.437 5.571 25.25l-39.393 61.643c-5.625 8.802-16.437 11.203-25.25 5.571-9.428-6.095-18.977-12.156-28.464-18.215-6.134-3.908-14.001-3.81-20.036.25-8.115 5.445-16.692 10.149-25.643 14.071-6.658 2.91-10.962 9.485-10.964 16.751v33.75c0 10.447-7.839 18.286-18.286 18.286h-73.143c-10.447 0-18.286-7.839-18.286-18.286v-33.75c-.003-7.266-4.307-13.84-10.964-16.75-8.951-3.922-17.528-8.626-25.643-14.071-6.035-4.06-13.902-4.158-20.036-.25-9.497 6.044-19.014 12.155-28.464 18.215-8.813 5.631-19.625 3.23-25.25-5.572l-39.393-61.643c-5.631-8.813-3.231-19.625 5.571-25.25l28.429-18.179c6.145-3.939 9.36-11.154 8.179-18.357-1.375-8.41-2.085-16.907-2.085-25.536s.71-17.126 2.085-25.536c1.181-7.203-2.033-14.418-8.179-18.356l-28.429-18.179c-8.802-5.625-11.203-16.437-5.571-25.25l39.393-61.643c5.625-8.802 16.437-11.203 25.25-5.571 9.43 6.094 18.977 12.155 28.464 18.214 6.134 3.908 14.001 3.81 20.036-.25 8.115-5.445 16.692-10.149 25.643-14.071 6.658-2.91 10.961-9.484 10.964-16.75v-33.75c-.001-10.447 7.838-18.287 18.285-18.287z"/><path id="path25897" d="m258.659 148.286c-60.377 0-109.714 49.337-109.714 109.714s49.337 109.714 109.714 109.714 109.715-49.337 109.715-109.714-49.338-109.714-109.715-109.714zm0 36.571c40.612 0 73.143 32.531 73.143 73.143s-32.531 73.143-73.143 73.143-73.143-32.531-73.143-73.143 32.531-73.143 73.143-73.143z"/></g></g></g></svg>