<svg id="Capa_1" enable-background="new 0 0 512 512" height="512" viewBox="0 0 512 512" width="512" xmlns="http://www.w3.org/2000/svg"><g><path clip-rule="evenodd" d="m391.493 133.93v83.772c18.893 5.845 35.428 17.567 47.201 33.459 11.771 15.893 18.163 35.127 18.248 54.905v112.927c-.041 24.663-9.859 48.305-27.302 65.741-17.446 17.434-41.093 27.241-65.756 27.267h-215.769c-24.664-.026-48.31-9.833-65.755-27.267-17.444-17.436-27.263-41.078-27.303-65.741v-112.927c.058-19.418 6.207-38.326 17.582-54.064 11.375-15.737 27.401-27.507 45.821-33.652v-84.42c.684-35.754 15.367-69.813 40.894-94.857 25.528-25.044 59.862-39.073 95.622-39.073s70.095 14.029 95.621 39.073c25.529 25.044 40.21 59.103 40.896 94.857zm-73.316-63.062c-16.765-16.756-39.473-26.21-63.176-26.302-23.71.013-46.448 9.428-63.228 26.179s-26.232 39.473-26.285 63.184v79.229h179.026v-79.128c-.104-23.703-9.571-46.405-26.337-63.162zm78.075 380.644c8.627-8.627 13.486-20.321 13.512-32.52l.148-112.927c-.026-12.201-4.882-23.892-13.509-32.52-8.627-8.625-20.319-13.484-32.52-13.509h-215.768c-12.204.013-23.904 4.867-32.533 13.496-8.629 8.63-13.483 20.329-13.496 32.532v112.927c.013 12.203 4.867 23.903 13.496 32.532 8.63 8.63 20.329 13.484 32.533 13.496h215.62c12.199-.023 23.893-4.882 32.517-13.507zm-157.134-82.34c4.999-3.333 10.875-5.105 16.882-5.094 8.037 0 15.745 3.192 21.428 8.875s8.876 13.389 8.876 21.427c.01 6.008-1.763 11.884-5.095 16.881-3.332 5-8.071 8.899-13.62 11.203-5.548 2.304-11.656 2.908-17.548 1.738-5.893-1.17-11.306-4.06-15.554-8.31-4.248-4.247-7.14-9.659-8.31-15.552s-.564-12.001 1.739-17.549c2.305-5.547 6.203-10.288 11.202-13.619z" fill="rgb(0,0,0)" fill-rule="evenodd"/></g></svg>