<svg fill="none" height="512" viewBox="0 0 21 18" width="512" xmlns="http://www.w3.org/2000/svg"><path d="m17.8141.400024h-13.86844c-.81275.001144-1.59187.32451-2.16657.899206-.5747.5747-.898064 1.35384-.899207 2.16658v10.85229c.001144.8126.324577 1.5915.899337 2.1659.57477.5743 1.35389.8972 2.16644.8978h13.86844c.8126-.0006 1.5917-.3235 2.1664-.8978.5748-.5744.8982-1.3533.8994-2.1659v-10.85229c-.0012-.81274-.3245-1.59188-.8992-2.16658-.5747-.574696-1.3538-.898062-2.1666-.899206zm-13.86844 1.819166h13.86844c.2952.0009.5803.10744.8037.30031l-6.1942 6.16615c-.4594.45649-1.0808.7127-1.7284.7127-.6477 0-1.26903-.25621-1.72845-.7127l-6.00628-5.98035c.11596-.15114.2651-.27358.43593-.35787s.35876-.12818.54926-.12824zm13.86844 13.34561h-13.86844c-.33082 0-.64812-.1313-.88225-.365s-.36594-.5508-.36652-.8817v-9.30968l4.98866 4.96922c.80079.79416 1.88289 1.23966 3.01065 1.23966 1.1278 0 2.2099-.4455 3.0107-1.23966l5.3473-5.34299v9.67705c.0012.3304-.1287.6479-.3611.8827-.2325.2349-.5485.3681-.879.3704z" fill="rgb(0,0,0)"/></svg>