<svg id="Layer_1" enable-background="new 0 0 128 128" viewBox="0 0 128 128" xmlns="http://www.w3.org/2000/svg"><g><g><g><path d="m4 34c0-11.05 8.95-20 20-20h80c11.05 0 20 8.95 20 20v60c0 11.05-8.95 20-20 20h-80c-11.05 0-20-8.95-20-20z" fill="#fff"/></g></g><g><g><path d="m79 97h-10c-1.66 0-3-1.34-3-3s1.34-3 3-3h10c1.66 0 3 1.34 3 3s-1.34 3-3 3z" fill="#71c2ff"/></g></g><g><g><path d="m49 97h-30c-1.66 0-3-1.34-3-3s1.34-3 3-3h30c1.66 0 3 1.34 3 3s-1.34 3-3 3z" fill="#71c2ff"/></g></g><path d="m104 11h-80c-12.68 0-23 10.32-23 23v60c0 12.68 10.32 23 23 23h80c12.68 0 23-10.32 23-23v-60c0-12.68-10.32-23-23-23zm-97 26h114v14h-114zm17-20h80c8.35 0 15.3 6.05 16.72 14h-113.44c1.42-7.95 8.37-14 16.72-14zm80 94h-80c-9.37 0-17-7.63-17-17v-37h114v37c0 9.37-7.63 17-17 17z" fill="#444b54"/></g></svg>