<svg fill="none" height="64" viewBox="0 0 64 64" width="64" xmlns="http://www.w3.org/2000/svg"><g fill="rgb(0,0,0)"><path d="m54 32c1.1046 0 2-.8954 2-2s-.8954-2-2-2h-4c-1.1046 0-2 .8954-2 2s.8954 2 2 2z"/><g clip-rule="evenodd" fill-rule="evenodd"><path d="m12 4c-5.52285 0-10 4.47715-10 10v13c0 1.1046.89543 2 2 2s2-.8954 2-2v-13c0-3.3137 2.68629-6 6-6h40c3.3137 0 6 2.6863 6 6v6h-8c-5.5228 0-10 4.4772-10 10s4.4772 10 10 10h8v6c0 3.3137-2.6863 6-6 6h-26c-1.1046 0-2 .8954-2 2s.8954 2 2 2h26c5.5229 0 10-4.4772 10-10v-32c0-5.52285-4.4771-10-10-10zm38 20h8v12h-8c-3.3137 0-6-2.6863-6-6s2.6863-6 6-6z"/><path d="m12.125 33c0-1.1046-.8954-2-2-2-1.10457 0-2 .8954-2 2v1.5714h-4.125c-1.10457 0-2 .8955-2 2v17.8572c0 1.1045.89543 2 2 2h4.125v1.5714c0 1.1046.89543 2 2 2 1.1046 0 2-.8954 2-2v-1.5714h1.5c3.5587 0 6.375-2.9325 6.375-6.4643 0-1.7201-.668-3.2981-1.7645-4.4643 1.0965-1.1662 1.7645-2.7442 1.7645-4.4643 0-3.5318-2.8163-6.4643-6.375-6.4643h-1.5zm-6.125 5.5714h7.625c1.2738 0 2.375 1.065 2.375 2.4643s-1.1012 2.4643-2.375 2.4643h-7.625zm0 8.9286h7.625c1.2738 0 2.375 1.065 2.375 2.4643s-1.1012 2.4643-2.375 2.4643h-7.625z"/></g></g></svg>