<svg id="Layer_2" height="512" viewBox="0 0 16 16" width="512" xmlns="http://www.w3.org/2000/svg" data-name="Layer 2"><path d="m14.791 3.0029a2.2949 2.2949 0 0 0 -1.7944-1.7939l-3.3921-.7149a2.6569 2.6569 0 0 0 -2.3965.7459l-5.8506 5.8508a2.5269 2.5269 0 0 0 -.1181 3.5635l4.1064 4.1064a2.3473 2.3473 0 0 0 1.6733.6793 2.6817 2.6817 0 0 0 1.89-.7969l5.851-5.8511a2.6638 2.6638 0 0 0 .7461-2.3975zm-.7383 5.0821-5.8506 5.85a1.529 1.529 0 0 1 -2.1494.1182l-4.1064-4.1059a1.5286 1.5286 0 0 1 .1182-2.1494l5.8505-5.8506a1.6512 1.6512 0 0 1 1.4834-.4746l3.3921.7148a1.3066 1.3066 0 0 1 1.022 1.0225l.7148 3.3916a1.6538 1.6538 0 0 1 -.4746 1.4834z"/><path d="m11 3.5a1.5 1.5 0 1 0 1.5 1.5 1.5017 1.5017 0 0 0 -1.5-1.5zm0 2a.5.5 0 1 1 .5-.5.5006.5006 0 0 1 -.5.5z"/><path d="m9.1465 7.6465-3.5 3.5a.5.5 0 1 0 .707.707l3.5-3.5a.5.5 0 0 0 -.707-.707z"/><path d="m8.3535 6.1465a.5.5 0 0 0 -.707 0l-3.5 3.5a.5.5 0 1 0 .707.707l3.5-3.5a.5.5 0 0 0 0-.707z"/></svg>