<svg enable-background="new 0 0 32 32" viewBox="0 0 32 32" xmlns="http://www.w3.org/2000/svg"><g id="Grid" display="none"/><g id="approved"/><g id="rejected"/><g id="cv"><path d="m27.776 5.474-3.225-3.225c-.728-.741-1.709-1.149-2.761-1.149h-14.81c-2.15 0-3.9 1.75-3.9 3.9v22c0 2.15 1.75 3.9 3.9 3.9h18.04c2.15 0 3.9-1.745 3.9-3.89v-18.78c0-1.054-.408-2.035-1.144-2.756zm-4.503-1.958 3.235 3.236c.394.387.61.912.61 1.478v.303h-4.522c-.607 0-1.101-.494-1.101-1.101v-4.532h.294c.566 0 1.092.217 1.484.616zm1.747 25.584h-18.04c-1.158 0-2.1-.942-2.1-2.1v-22c0-1.158.942-2.1 2.1-2.1h12.715v4.533c0 1.599 1.302 2.9 2.901 2.9h4.522v16.677c.001 1.152-.94 2.09-2.098 2.09z"/><path d="m18.839 17.64c.628-.687 1.021-1.592 1.021-2.594 0-2.128-1.732-3.86-3.861-3.86s-3.86 1.732-3.86 3.86c0 1.002.393 1.907 1.021 2.594-1.305.716-2.203 2.088-2.203 3.679v.473c0 .785.557 1.46 1.325 1.607 1.221.234 2.472.353 3.717.353s2.497-.119 3.717-.353c.768-.147 1.325-.823 1.325-1.607v-.473c.001-1.591-.896-2.963-2.202-3.679zm-2.839-4.654c1.136 0 2.06.924 2.06 2.061 0 1.136-.924 2.06-2.06 2.06s-2.06-.924-2.06-2.06c-.001-1.137.924-2.061 2.06-2.061zm3.241 8.672c-2.134.392-4.352.392-6.484 0v-.338c0-1.331 1.083-2.413 2.413-2.413h1.659c1.33 0 2.412 1.083 2.412 2.413z"/></g><g id="find_a_candidate"/><g id="newspaper"/><g id="interview"/><g id="test"/><g id="telephone"/><g id="office"/><g id="notepad"/><g id="interviewer"/><g id="target"/><g id="qna"/><g id="briefcase"/><g id="accepted"/><g id="denied"/><g id="negotiation"/><g id="invitation"/><g id="online_interview"/><g id="calendar"/><g id="cover_letter"/><g id="contact"/><g id="clock"/><g id="rating"/><g id="resume"/></svg>