<svg clip-rule="evenodd" fill-rule="evenodd" height="512" stroke-linejoin="round" stroke-miterlimit="2" viewBox="0 0 32 32" width="512" xmlns="http://www.w3.org/2000/svg"><g id="Icon"><path d="m21 9v-5c0-1.656-1.344-3-3-3h-14c-1.656 0-3 1.344-3 3v24c0 1.656 1.344 3 3 3h14c1.656 0 3-1.344 3-3v-5c0-.552-.448-1-1-1s-1 .448-1 1v5c0 .552-.448 1-1 1h-14c-.552 0-1-.448-1-1v-24c0-.552.448-1 1-1h14c.552 0 1 .448 1 1v5c0 .552.448 1 1 1s1-.448 1-1z"/><path d="m23 31h5c1.656 0 3-1.344 3-3v-24c0-1.656-1.344-3-3-3h-5c-.552 0-1 .448-1 1s.448 1 1 1h5c.552 0 1 .448 1 1v24c0 .552-.448 1-1 1h-5c-.552 0-1 .448-1 1s.448 1 1 1z"/><path d="m9 6h4c.552 0 1-.448 1-1s-.448-1-1-1h-4c-.552 0-1 .448-1 1s.448 1 1 1z"/><path d="m14 15h8c.552 0 1-.448 1-1s-.448-1-1-1h-8c-.552 0-1 .448-1 1s.448 1 1 1z"/><path d="m22 19h-8c-.552 0-1 .448-1 1s.448 1 1 1h8c.552 0 1-.448 1-1s-.448-1-1-1z"/><path d="m22.707 13.293-2-2c-.39-.39-1.024-.39-1.414 0s-.39 1.024 0 1.414l2 2c.39.39 1.024.39 1.414 0s.39-1.024 0-1.414z"/><path d="m13.293 20.707 2 2c.39.39 1.024.39 1.414 0s.39-1.024 0-1.414l-2-2c-.39-.39-1.024-.39-1.414 0s-.39 1.024 0 1.414z"/><path d="m21.293 13.293-2 2c-.39.39-.39 1.024 0 1.414s1.024.39 1.414 0l2-2c.39-.39.39-1.024 0-1.414s-1.024-.39-1.414 0z"/><path d="m14.707 20.707 2-2c.39-.39.39-1.024 0-1.414s-1.024-.39-1.414 0l-2 2c-.39.39-.39 1.024 0 1.414s1.024.39 1.414 0z"/></g></svg>