<svg id="Layer_1" height="512" viewBox="0 0 32 32" width="512" xmlns="http://www.w3.org/2000/svg"><g id="ATM_money_x2C__hand"><g><g><g><path d="m20.004 28.438h1v-1.438c0-.199-.118-.379-.3-.458-1.235-.538-2.183-1.72-2.537-3.16-.065-.269-.331-.433-.604-.366-.269.065-.433.336-.366.604.398 1.625 1.438 2.982 2.808 3.695v1.123z" fill="rgb(0,0,0)"/></g></g></g><g><g><g><path d="m29.161 17.374-5.612-5.724c-.031-.032-.07-.051-.107-.073v1.392l5.006 5.105c.297.302.557.938.557 1.363v9h1v-9c-.001-.687-.363-1.575-.844-2.063z" fill="rgb(0,0,0)"/></g></g></g><g><g><g><g><g><g><g><g><g><path d="m20.004 8.5c0-.276-.224-.5-.5-.5h-.5c-.276 0-.5.224-.5.5s.224.5.5.5h.5c.276 0 .5-.224.5-.5z" fill="rgb(0,0,0)"/></g></g></g></g></g></g><g><g><g><g><g><g><path d="m13.596 8.5c0-.276-.224-.5-.5-.5h-.5c-.276 0-.5.224-.5.5s.224.5.5.5h.5c.276 0 .5-.224.5-.5z" fill="rgb(0,0,0)"/></g></g></g></g></g></g></g><g><g><g><g><path d="m19.103 8.528c0 .636-.316 1.268-.912 1.774-.21.179-.526.153-.705-.057-.179-.209-.154-.526.057-.705.481-.409.663-.897.501-1.339-.139-.379-.5-.624-.918-.624-.44 0-.599.29-.878 1.001-.246.628-.584 1.487-1.575 1.487-.642 0-1.152-.311-1.4-.853-.297-.651-.164-1.558.311-2.107.181-.209.497-.231.706-.052.21.182.229.497.052.706-.222.256-.294.741-.159 1.037.053.115.161.269.491.269.267 0 .389-.202.645-.853s.643-1.636 1.809-1.636c.842 0 1.571.502 1.856 1.278.079.223.119.45.119.674z" fill="rgb(0,0,0)"/></g></g></g></g></g></g><g><g><g><path d="m22.608 25.711c-.137 0-.272-.056-.371-.165-.664-.737-1.03-1.689-1.03-2.68 0-.728.197-1.439.572-2.06.144-.238.453-.311.686-.17.237.143.313.449.17.686-.279.465-.428.999-.428 1.544 0 .743.274 1.457.772 2.01.186.205.169.521-.036.706-.095.087-.215.129-.335.129z" fill="rgb(0,0,0)"/></g></g></g><g><g><g><g><path d="m22.186 21.598c-.128 0-.256-.049-.354-.146l-2.33-2.33c-.682-.682-1.018-1.452-.997-2.289.038-1.562 1.333-2.754 1.388-2.804.195-.179.494-.173.684.011l5.775 5.602c.198.192.203.509.012.707-.192.199-.508.204-.707.012l-5.407-5.244c-.307.378-.729 1.026-.744 1.746-.013.559.218 1.066.704 1.553l2.33 2.33c.195.195.195.512 0 .707-.099.096-.227.145-.354.145z" fill="rgb(0,0,0)"/></g></g></g></g><g><g><g><g><g><g><path d="m31.004 30.5c0 .276-.224.5-.5.5-.276 0-.5-.224-.5-.5v-1.5h-11v1.5c0 .276-.224.5-.5.5-.276 0-.5-.224-.5-.5v-2c0-.276.207-.5.482-.5h12c.277 0 .518.224.518.5z" fill="rgb(0,0,0)"/></g></g></g></g></g></g><g><g><g><path d="m24.504 5h-17c-.276 0-.5-.224-.5-.5s.224-.5.5-.5h17c.276 0 .5.224.5.5s-.224.5-.5.5z" fill="rgb(0,0,0)"/></g></g></g><g><g><g><path d="m27.504 8h-2c-.276 0-.5-.224-.5-.5s.224-.5.5-.5h1.5v-5h-22v5h1.5c.276 0 .5.224.5.5s-.224.5-.5.5h-2c-.276 0-.5-.224-.5-.5v-6c0-.276.224-.5.5-.5h23c.276 0 .5.224.5.5v6c0 .276-.224.5-.5.5z" fill="rgb(0,0,0)"/></g></g></g><g><g><g><g><path d="m24.004 15v-8.5c0-.276-.224-.5-.5-.5s-.5.224-.5.5v8.5c0 .276.224.5.5.5.276 0 .5-.224.5-.5z" fill="rgb(0,0,0)"/></g></g></g><g><g><g><path d="m19.504 21h-10.5v-14.5c0-.276-.224-.5-.5-.5s-.5.224-.5.5v15c0 .276.224.5.5.5h11c.276 0 .5-.224.5-.5 0-.276-.224-.5-.5-.5z" fill="rgb(0,0,0)"/></g></g></g></g></g></svg>