<svg enable-background="new 0 0 32 32" viewBox="0 0 32 32" xmlns="http://www.w3.org/2000/svg"><g id="Grid" display="none"/><g id="account"/><g id="Add_account"/><g id="remove_account"><path d="m17.688 28.953c-1.188.098-2.459.147-3.777.147-3.06 0-6.104-.291-9.053-.864-.474-.089-.817-.508-.817-.996v-1.23c0-4.251 3.463-7.71 7.72-7.71h4.31c1.439 0 2.835.393 4.037 1.136.423.262.979.129 1.239-.292.262-.423.131-.978-.292-1.239-.744-.46-1.547-.811-2.386-1.047 2.315-1.542 3.845-4.174 3.845-7.159 0-4.741-3.857-8.599-8.599-8.599s-8.599 3.858-8.599 8.599c0 2.99 1.536 5.626 3.859 7.167-3.995 1.129-6.934 4.796-6.934 9.144v1.23c0 1.352.96 2.515 2.278 2.763 3.057.595 6.217.896 9.392.896 1.367 0 2.687-.051 3.923-.153.496-.041.864-.475.824-.971-.041-.494-.484-.855-.97-.822zm-10.572-19.254c0-3.749 3.05-6.799 6.799-6.799s6.798 3.05 6.798 6.799-3.049 6.799-6.798 6.799-6.799-3.05-6.799-6.799z"/><path d="m28.2 21.814c-2.074-2.075-5.452-2.073-7.526 0-2.074 2.075-2.074 5.451 0 7.526 1.038 1.038 2.4 1.556 3.764 1.556 1.362 0 2.726-.519 3.763-1.556h.001c2.073-2.074 2.073-5.45-.002-7.526zm-1.271 6.254c-1.376 1.374-3.609 1.372-4.981 0-1.373-1.374-1.373-3.608 0-4.981.687-.687 1.588-1.029 2.49-1.029.901 0 1.804.343 2.49 1.029 1.373 1.374 1.373 3.608.001 4.981z"/><path d="m25.951 24.678h-3.027c-.497 0-.9.403-.9.9s.403.9.9.9h3.027c.497 0 .9-.403.9-.9s-.403-.9-.9-.9z"/></g><g id="block_account"/><g id="search_account"/><g id="lock_account"/><g id="love"/><g id="edit_account"/><g id="sound"/><g id="graduation"/><g id="target"/><g id="favorite"/><g id="security"/><g id="delete_account"/><g id="unlock_account"/><g id="setting"/><g id="public_account"/><g id="chat"/><g id="verified_account"/><g id="group"/><g id="bookmark"/><g id="database"/><g id="cloud"/><g id="link"/><g id="bank_account"/><g id="change"/><g id="view"/><g id="message"/><g id="location"/><g id="winner"/><g id="log_in"/><g id="log_out"/><g id="transfer"/><g id="change_account"/><g id="navigation"/><g id="delete_group"/><g id="join_group"/><g id="block_group"/><g id="attachment"/><g id="download"/><g id="upload"/><g id="anonymous"/><g id="leave_group_1_"/><g id="chatting"/><g id="share"/><g id="at"/><g id="id_card"/><g id="rotate"/><g id="audio_1_"/><g id="avatar"/></svg>