<?xml version="1.0" encoding="UTF-8"?>
<svg xmlns="http://www.w3.org/2000/svg" xmlns:xlink="http://www.w3.org/1999/xlink" version="1.1" id="Capa_1" x="0px" y="0px" viewBox="0 0 512 512" style="enable-background:new 0 0 512 512;" xml:space="preserve" width="512" height="512">
<g>
	
		<polygon style="fill:none;stroke:#000000;stroke-width:30;stroke-linecap:round;stroke-linejoin:round;stroke-miterlimit:10;" points="&#10;&#9;&#9;497,296 456,296 432,352 392,344 344,264 344,192 312,184 280,112 248,112 224,120 184,56 144,56 120,72 48,40 15,40 15,120 &#10;&#9;&#9;48,288 96,288 88,160 120,160 160,272 160,344 216,392 264,400 344,464 392,456 432,472 480,424 472,392 497,368 &#9;"/>
	
		<line style="fill:none;stroke:#000000;stroke-width:30;stroke-linecap:round;stroke-linejoin:round;stroke-miterlimit:10;" x1="120" y1="72" x2="120" y2="160"/>
	
		<line style="fill:none;stroke:#000000;stroke-width:30;stroke-linecap:round;stroke-linejoin:round;stroke-miterlimit:10;" x1="344" y1="264" x2="344" y2="460.083"/>
	
		<circle style="fill:none;stroke:#000000;stroke-width:30;stroke-linecap:round;stroke-linejoin:round;stroke-miterlimit:10;" cx="248" cy="256" r="32"/>
</g>















</svg>
