<svg version="1.1" id="Layer_1" xmlns="http://www.w3.org/2000/svg" xmlns:xlink="http://www.w3.org/1999/xlink" x="0px" y="0px" viewBox="0 0 512 512" style="enable-background:new 0 0 512 512;" xml:space="preserve">
<g>
	<g>
		<g>
			<g>
				<path style="fill:none;stroke:#000000;stroke-width:40;stroke-linecap:round;stroke-linejoin:round;stroke-miterlimit:10;" d="&#10;&#9;&#9;&#9;&#9;&#9;M394.951,20h56.773C473.968,20,492,38.032,492,60.277v45.875"/>
				<path style="fill:none;stroke:#000000;stroke-width:40;stroke-linecap:round;stroke-linejoin:round;stroke-miterlimit:10;" d="&#10;&#9;&#9;&#9;&#9;&#9;M117.049,20H60.277C38.032,20,20,38.032,20,60.277v45.875"/>
			</g>
			<g>
				<path style="fill:none;stroke:#000000;stroke-width:40;stroke-linecap:round;stroke-linejoin:round;stroke-miterlimit:10;" d="&#10;&#9;&#9;&#9;&#9;&#9;M117.049,492H60.277C38.032,492,20,473.968,20,451.723v-45.875"/>
				<path style="fill:none;stroke:#000000;stroke-width:40;stroke-linecap:round;stroke-linejoin:round;stroke-miterlimit:10;" d="&#10;&#9;&#9;&#9;&#9;&#9;M394.951,492h56.773C473.968,492,492,473.968,492,451.723v-45.875"/>
			</g>
		</g>
		<g>
			<g>
				
					<line style="fill:none;stroke:#000000;stroke-width:40;stroke-linecap:round;stroke-linejoin:round;stroke-miterlimit:10;" x1="302.189" y1="218.531" x2="302.189" y2="231.491"/>
				
					<line style="fill:none;stroke:#000000;stroke-width:40;stroke-linecap:round;stroke-linejoin:round;stroke-miterlimit:10;" x1="209.811" y1="218.531" x2="209.811" y2="231.491"/>
			</g>
			<path style="fill:none;stroke:#000000;stroke-width:40;stroke-linecap:round;stroke-linejoin:round;stroke-miterlimit:10;" d="&#10;&#9;&#9;&#9;&#9;M283.171,312.042c-15.006,15.006-39.335,15.006-54.341,0"/>
		</g>
	</g>
	<path style="fill:none;stroke:#000000;stroke-width:40;stroke-linecap:round;stroke-linejoin:round;stroke-miterlimit:10;" d="&#10;&#9;&#9;M399.255,289.724c0.052-1.583,0.078-3.171,0.078-4.766v-83.346c0-64.817-52.545-117.362-117.362-117.362h-51.944&#10;&#9;&#9;c-64.817,0-117.362,52.545-117.362,117.362v83.346c0,78.861,63.93,142.791,142.791,142.791h1.085&#10;&#9;&#9;c40.983,0,77.934-17.266,103.975-44.92"/>
</g>
<g>
</g>
<g>
</g>
<g>
</g>
<g>
</g>
<g>
</g>
<g>
</g>
<g>
</g>
<g>
</g>
<g>
</g>
<g>
</g>
<g>
</g>
<g>
</g>
<g>
</g>
<g>
</g>
<g>
</g>
</svg>