<svg height="512" viewBox="0 0 32 32" width="512" xmlns="http://www.w3.org/2000/svg"><g id="pie_chart" fill-rule="evenodd" data-name="pie chart"><path d="m16 1.5a14.5 14.5 0 1 0 14.5 14.5 14.507 14.507 0 0 0 -14.5-14.5zm0 28a13.5 13.5 0 1 1 13.5-13.5 13.506 13.506 0 0 1 -13.5 13.5z"/><path d="m16 7.5a8.5 8.5 0 0 0 0 17 .5.5 0 0 0 .5-.5v-7.5h7.5a.5.5 0 0 0 .5-.5 8.5 8.5 0 0 0 -8.5-8.5zm0 8a.5.5 0 0 0 -.5.5v7.484a7.5 7.5 0 1 1 7.984-7.984z"/><path d="m24 17.5h-6a.5.5 0 0 0 -.5.5v6a.5.5 0 0 0 .5.5 6.5 6.5 0 0 0 6.5-6.5.5.5 0 0 0 -.5-.5zm-5.5 5.978v-4.978h4.978a5.506 5.506 0 0 1 -4.978 4.978z"/></g></svg>