<svg id="Layer_1" enable-background="new 0 0 36 36" viewBox="0 0 36 36" xmlns="http://www.w3.org/2000/svg" xmlns:xlink="http://www.w3.org/1999/xlink"><linearGradient id="SVGID_1_" gradientUnits="userSpaceOnUse" x1="6.75" x2="29.25" y1="18" y2="18"><stop offset="0" stop-color="#4656a1"/><stop offset="1" stop-color="#84c8d3"/></linearGradient><linearGradient id="SVGID_2_" gradientUnits="userSpaceOnUse" x1="6.75" x2="29.25" y1="18" y2="18"><stop offset="0" stop-color="#b3d"/><stop offset="1" stop-color="#ff5160"/></linearGradient><g><path d="m18 .5c-9.66 0-17.5 7.83-17.5 17.5 0 9.66 7.84 17.5 17.5 17.5s17.5-7.83 17.5-17.5-7.84-17.5-17.5-17.5z" fill="#f4f4f6"/><g><g><path d="m8.25 25.5c-.34 0-.69-.12-.97-.36-.63-.54-.71-1.48-.17-2.11l6.59-7.76c.43-.51 1.15-.67 1.76-.4l6.29 2.84 4.79-6.6c.49-.67 1.42-.82 2.1-.33.67.49.82 1.42.33 2.1l-5.51 7.58c-.42.58-1.18.78-1.83.49l-6.37-2.88-5.86 6.9c-.3.35-.73.53-1.15.53z" fill="url(#SVGID_1_)"/></g><g><path d="m27.75 29.25h-19.5c-.83 0-1.5-.67-1.5-1.5v-19.5c0-.83.67-1.5 1.5-1.5s1.5.67 1.5 1.5v18h18c.83 0 1.5.67 1.5 1.5s-.67 1.5-1.5 1.5z" fill="url(#SVGID_2_)"/></g></g></g></svg>