<svg fill="none" height="512" viewBox="0 0 24 24" width="512" xmlns="http://www.w3.org/2000/svg"><g clip-rule="evenodd" fill="rgb(0,0,0)" fill-rule="evenodd"><path d="m13.9971 3.96598c-1.1743-.91464-2.8198-.91464-3.9941 0l-5.00008 3.89446c-.79061.61579-1.25292 1.56188-1.25292 2.56406v7.0453c0 1.795 1.45507 3.25 3.25 3.25h10c1.795 0 3.25-1.455 3.25-3.25v-7.0454c0-1.00208-.4623-1.94817-1.2529-2.56397zm-4.91587-1.18339c1.71627-1.33679 4.12137-1.33679 5.83757 0l5 3.89445c1.1556.90001 1.8312 2.28276 1.8312 3.74736v7.0454c0 2.6234-2.1266 4.75-4.75 4.75h-10c-2.62335 0-4.75-2.1266-4.75-4.75v-7.0453c0-1.4647.67569-2.84745 1.83119-3.74746z"/><path d="m8.00006 18c0-.4142.33579-.75.75-.75h6.50004c.4142 0 .75.3358.75.75s-.3358.75-.75.75h-6.50004c-.41421 0-.75-.3358-.75-.75z"/></g></svg>