<?xml version="1.0" encoding="UTF-8"?>
<svg id="Capa_1" xmlns="http://www.w3.org/2000/svg" version="1.1" viewBox="0 0 53.7 66.3">
  <!-- Generator: Adobe Illustrator 29.3.1, SVG Export Plug-In . SVG Version: 2.1.0 Build 151)  -->
  <defs>
    <style>
      .st0 {
        fill: #fff;
      }
    </style>
  </defs>
  <path class="st0" d="M12.2,45.2c-1.2,1.2-3.1,1.2-4.2,0s-1.2-3.1,0-4.2c4.3-4.3,4.3-11.3,0-15.6s-1.2-3.1,0-4.2,3.1-1.2,4.2,0c6.6,6.6,6.6,17.4,0,24h0Z"/>
  <path class="st0" d="M21.4,54.4c-1.2,1.2-3.1,1.2-4.2,0s-1.2-3.1,0-4.2c9.4-9.4,9.4-24.6,0-33.9s-1.2-3.1,0-4.2,3.1-1.2,4.2,0c11.7,11.7,11.7,30.7,0,42.4Z"/>
  <path class="st0" d="M30.6,63.6c-1.2,1.2-3.1,1.2-4.2,0s-1.2-3.1,0-4.2c14.4-14.4,14.4-37.9,0-52.3-1.2-1.2-1.2-3.1,0-4.2s3.1-1.2,4.2,0c16.8,16.8,16.8,44,0,60.8Z"/>
</svg>