<?xml version="1.0" encoding="UTF-8"?>
<svg id="Capa_1" xmlns="http://www.w3.org/2000/svg" version="1.1" xmlns:xlink="http://www.w3.org/1999/xlink" viewBox="0 0 64 64">
  <!-- Generator: Adobe Illustrator 29.3.1, SVG Export Plug-In . SVG Version: 2.1.0 Build 151)  -->
  <defs>
    <style>
      .st0, .st1 {
        fill: #fff;
      }

      .st1 {
        fill-rule: evenodd;
      }
    </style>
  </defs>
  <path class="st1" d="M12,8c-2.2,0-4,1.8-4,4v6c0,2.2,1.8,4,4,4h16c2.2,0,4-1.8,4-4v-6c0-2.2-1.8-4-4-4H12ZM12,12h16v6H12v-6Z"/>
  <path class="st1" d="M12,2C6.5,2,2,6.5,2,12v27c0,5.5,4.5,10,10,10h10v5c0,4.4,3.6,8,8,8h24c4.4,0,8-3.6,8-8v-14c0-4.4-3.6-8-8-8h-16V12c0-5.5-4.5-10-10-10H12ZM58,40v1H26v-1c0-2.2,1.8-4,4-4h24c2.2,0,4,1.8,4,4ZM58,45H26v9c0,2.2,1.8,4,4,4h24c2.2,0,4-1.8,4-4v-9ZM30,32c-4.4,0-8,3.6-8,8v5h-10c-3.3,0-6-2.7-6-6V12c0-3.3,2.7-6,6-6h16c3.3,0,6,2.7,6,6v20h-4Z"/>
  <path class="st0" d="M51,4.6c-.8-.8-2.1-.7-2.8,0-.8.8-.7,2.1,0,2.8,5,4.7,5,12.4,0,17.1-.8.8-.8,2,0,2.8.8.8,2,.8,2.8,0,6.6-6.3,6.6-16.6,0-22.9Z"/>
  <path class="st0" d="M47.4,9.6c-.8-.8-2.1-.7-2.8,0-.8.8-.7,2.1,0,2.8,2.3,2.2,2.3,5.7,0,7.9-.8.8-.8,2,0,2.8.8.8,2,.8,2.8,0,4-3.8,4-9.9,0-13.7Z"/>
</svg>