<svg id="Layer_1" height="512" viewBox="0 0 24 24" width="512" xmlns="http://www.w3.org/2000/svg" data-name="Layer 1"><path d="m20 22.75h-16a2.752 2.752 0 0 1 -2.75-2.75v-11a2.752 2.752 0 0 1 2.75-2.75h5a.75.75 0 0 1 0 1.5h-5a1.252 1.252 0 0 0 -1.25 1.25v11a1.252 1.252 0 0 0 1.25 1.25h16a1.252 1.252 0 0 0 1.25-1.25v-11a1.252 1.252 0 0 0 -1.25-1.25h-3a.75.75 0 0 1 0-1.5h3a2.752 2.752 0 0 1 2.75 2.75v11a2.752 2.752 0 0 1 -2.75 2.75z" fill="#232323"/><path d="m14 9.75h-4a1.752 1.752 0 0 1 -1.75-1.75v-5a1.752 1.752 0 0 1 1.75-1.75h4a1.752 1.752 0 0 1 1.75 1.75v5a1.752 1.752 0 0 1 -1.75 1.75zm-4-7a.25.25 0 0 0 -.25.25v5a.25.25 0 0 0 .25.25h4a.25.25 0 0 0 .25-.25v-5a.25.25 0 0 0 -.25-.25z" fill="#232323"/><g fill="#7fbde7"><path d="m8 15.75a2.75 2.75 0 1 1 2.75-2.75 2.752 2.752 0 0 1 -2.75 2.75zm0-4a1.25 1.25 0 1 0 1.25 1.25 1.252 1.252 0 0 0 -1.25-1.25z"/><path d="m10 19.75h-4a.75.75 0 0 1 -.75-.75v-2a2.75 2.75 0 0 1 5.5 0v2a.75.75 0 0 1 -.75.75zm-3.25-1.5h2.5v-1.25a1.25 1.25 0 0 0 -2.5 0z"/><path d="m18 13.75h-5a.75.75 0 0 1 0-1.5h5a.75.75 0 0 1 0 1.5z"/><path d="m17 16.75h-4a.75.75 0 0 1 0-1.5h4a.75.75 0 0 1 0 1.5z"/></g></svg>