<svg fill="none" height="512" viewBox="0 0 20 21" width="512" xmlns="http://www.w3.org/2000/svg"><path clip-rule="evenodd" d="m6.24299 9.23135c1.06476-.00114 2.08557-.41732 2.83847-1.15722.7529-.73989 1.17644-1.74306 1.17754-2.78942v-.91808c0-.51828-.1039-1.03149-.30568-1.51032-.20183-.47883-.49765-.91389-.87057-1.28037s-.81566-.657194-1.3029-.855531c-.48725-.198338-1.00947-.300426-1.53686-.300426s-1.04964.102088-1.53689.300426c-.48724.198337-.92995.489051-1.30287.855531s-.66874.80154-.87057 1.28037c-.20182.47883-.30571.99204-.30571 1.51032v.91808c.00175 1.04618.42541 2.04904 1.17819 2.7888.75277.73977 1.77327 1.15613 2.83785 1.15784zm-2.16518-4.86472c-.00925-.28527.03993-.56946.14463-.83568.1047-.26623.26278-.50905.46485-.71406.20208-.20501.44402-.36801.71145-.47933.26744-.11132.55492-.16868.84535-.16868s.57789.05736.84532.16868.50938.27432.71145.47933.36015.44783.46485.71406c.1047.26622.15391.55041.14466.83568v.91808c-.01793.55286-.25402 1.0772-.65832 1.46206s-.94509.60005-1.50796.60005c-.56288 0-1.10369-.21519-1.50799-.60005s-.64037-.9092-.65829-1.46206zm5.84907 14.23337h-7.36602c-.18772 0-.36775-.0732-.50049-.2037-.13274-.1304-.20731-.3074-.20731-.4918v-1.806c.00226-.8314.24862-1.6446.70951-2.3419.4609-.6972 1.11676-1.249 1.88886-1.589.7721-.3401 1.62764-.454 2.46396-.328s1.61789.4864 2.25091 1.0381c.09064.0793.1963.1403.31091.1794.11462.0392.23595.0558.3571.0489.12114-.0069.23969-.0372.34899-.0892.1092-.0519.2069-.1245.2876-.2136s.1427-.1929.1826-.3055c.0398-.1127.0567-.2319.0497-.351-.0071-.119-.0379-.2355-.0908-.3429-.0528-.1073-.1267-.2034-.2173-.2827-.89853-.7877-2.00978-1.3032-3.19973-1.4843-1.18996-.18103-2.40779-.0199-3.50664.464-1.09886.4838-2.03182 1.2698-2.68633 2.2631-.654515.9932-1.002634 2.1513-1.00239988 3.3346v1.806c0 .3303.06624658.6575.19496888.9627.128721.3052.317401.5825.555227.816s.520144.4187.830834.5449c.31068.1263.64364.1911.97983.1908h7.36602c.12522.006.25032-.013.36772-.056.1175-.0429.2248-.1089.3156-.1938.0907-.0849.163-.1871.2124-.3003.0493-.1132.0748-.2351.0748-.3583 0-.1231-.0255-.245-.0748-.3582-.0494-.1132-.1217-.2154-.2124-.3003-.0908-.0849-.1981-.1509-.3156-.1938-.1174-.043-.2425-.062-.36772-.056zm9.10262-5.0267h-6.1922c-.2454 0-.4808-.0958-.6544-.2663-.1735-.1706-.271-.4019-.271-.6431s.0975-.4725.271-.6431c.1736-.1705.409-.2663.6544-.2663h6.1922c.1215 0 .2419.0235.3542.0692.1122.0457.2142.1127.3002.1971.0859.0845.1541.1847.2006.2951.0465.1103.0704.2286.0704.348s-.0239.2377-.0704.348c-.0465.1104-.1147.2106-.2006.2951-.086.0844-.188.1514-.3002.1971-.1123.0457-.2327.0692-.3542.0692zm-.0001 1.605h-6.1922c-.1252-.006-.2503.0131-.3678.056-.1174.043-.2248.1089-.3156.1938-.0907.085-.1629.1871-.2123.3003s-.0748.2351-.0748.3583c0 .1231.0254.245.0748.3582s.1216.2154.2123.3003c.0908.085.1982.1509.3156.1938.1175.043.2426.062.3678.056h6.1922c.1251.006.2502-.013.3677-.056.1175-.0429.2249-.1088.3156-.1938.0908-.0849.163-.1871.2124-.3003.0493-.1132.0748-.2351.0748-.3582 0-.1232-.0255-.2451-.0748-.3583-.0494-.1132-.1216-.2153-.2124-.3003-.0907-.0849-.1981-.1508-.3156-.1938-.1175-.0429-.2426-.062-.3677-.056zm-6.1922 3.4217h2.7213c.1252-.006.2503.0131.3677.056.1175.0429.2249.1089.3156.1938.0908.085.163.1871.2124.3003.0493.1132.0748.2351.0748.3583 0 .1231-.0255.245-.0748.3582-.0494.1132-.1216.2154-.2124.3003-.0907.085-.1981.1509-.3156.1938-.1174.043-.2425.062-.3677.056h-2.7213c-.1252.006-.2503-.013-.3678-.056-.1174-.0429-.2248-.1088-.3156-.1938-.0907-.0849-.1629-.1871-.2123-.3003s-.0748-.2351-.0748-.3582c0-.1232.0254-.2451.0748-.3583s.1216-.2153.2123-.3003c.0908-.0849.1982-.1509.3156-.1938.1175-.0429.2426-.062.3678-.056z" fill="rgb(0,0,0)" fill-rule="evenodd"/></svg>