<svg id="Layer_1" enable-background="new 0 0 64 64" viewBox="0 0 64 64" xmlns="http://www.w3.org/2000/svg"><path d="m32 3c-15.9902344 0-29 13.0092773-29 29s13.0097656 29 29 29 29-13.0092773 29-29-13.0097656-29-29-29zm0 54c-13.7851562 0-25-11.2148437-25-25s11.2148438-25 25-25 25 11.2148438 25 25-11.2148437 25-25 25zm-2.1201172-34.8803711c-.5605469-.5595703-.8798828-1.3295898-.8798828-2.1196289s.3193359-1.5600586.8798828-2.1201172c1.1103516-1.1201172 3.1201172-1.1201172 4.2402344 0 .5595703.5600586.8798828 1.3300781.8798828 2.1201172s-.3203125 1.5600586-.8798828 2.1196289c-.5605469.5600586-1.3300781.8803711-2.1201172.8803711s-1.5605469-.3203125-2.1201172-.8803711zm12.1201172 22.8803711c0 1.1044922-.8955078 2-2 2h-15c-1.1044922 0-2-.8955078-2-2s.8955078-2 2-2h5v-15h-4c-1.1044922 0-2-.8955078-2-2s.8955078-2 2-2h6c1.1044922 0 2 .8955078 2 2v17h6c1.1044922 0 2 .8955078 2 2z"/></svg>