<?xml version="1.0" encoding="UTF-8"?>
<svg id="Capa_1" xmlns="http://www.w3.org/2000/svg" version="1.1" viewBox="0 0 40 40">
  <!-- Generator: Adobe Illustrator 29.3.1, SVG Export Plug-In . SVG Version: 2.1.0 Build 151)  -->
  <defs>
    <style>
      .st0 {
        fill-rule: evenodd;
      }
    </style>
  </defs>
  <path class="st0" d="M3.5,25.2c0-.7.6-1.2,1.2-1.2h10.2c.7,0,1.2.6,1.2,1.2s-.6,1.2-1.2,1.2H4.7c-.7,0-1.2-.6-1.2-1.2Z"/>
  <path class="st0" d="M10.8,20.7c.5-.5,1.3-.5,1.8,0l3.4,3.3c.6.6.6,1.6,0,2.2,0,0,0,0,0,0l-3.4,3.4c-.5.5-1.3.5-1.8,0-.5-.5-.5-1.3,0-1.8l2.7-2.7-2.7-2.7c-.5-.5-.5-1.3,0-1.8Z"/>
  <path class="st0" d="M3.5,11c0-4,3.3-7.2,7.2-7.2h18c4,0,7.2,3.3,7.2,7.2v18c0,4-3.3,7.2-7.2,7.2H10.7c-.7,0-1.2-.6-1.2-1.2s.6-1.2,1.2-1.2h18c2.6,0,4.8-2.1,4.8-4.8V11c0-2.6-2.1-4.8-4.8-4.8H10.7c-2.6,0-4.8,2.1-4.8,4.8v4.5c0,.7-.6,1.2-1.2,1.2s-1.2-.6-1.2-1.2v-4.5Z"/>
  <path class="st0" d="M22.7,13.3c-.4,0-.8.4-.8.9s.1.6.1.6c0,0,.1.1.4.2l4.3,1.5c.5.2,1.1.5,1.6,1.1.5.6.7,1.3.7,2.2,0,1.8-1.4,3.4-3.3,3.4h-2.7c-2,0-3.6-1.7-3.6-3.7s.6-1.2,1.2-1.2,1.2.6,1.2,1.2.6,1.2,1.1,1.2h2.7c.4,0,.8-.3.8-.9s0-.6-.1-.6c0,0-.1-.1-.4-.2l-4.3-1.5c-.5-.2-1.1-.5-1.6-1.1-.5-.6-.7-1.3-.7-2.2,0-1.8,1.4-3.4,3.3-3.4h2.7c2,0,3.6,1.7,3.6,3.7s-.6,1.2-1.2,1.2-1.2-.6-1.2-1.2-.6-1.2-1.1-1.2h-2.7Z"/>
  <path class="st0" d="M24.2,9.4c.7,0,1.2.6,1.2,1.3v12.8c0,.7-.6,1.2-1.2,1.2s-1.2-.6-1.2-1.2v-12.8c0-.7.6-1.3,1.2-1.3Z"/>
</svg>