<svg id="Layer_1" enable-background="new 0 0 53 53" viewBox="0 0 53 53" xmlns="http://www.w3.org/2000/svg"><g><path d="m45.4111328 3.3554688h-37.8222656c-2.6679688 0-4.8388672 2.1708984-4.8388672 4.8388671v12.9404297c0 2.6679688 2.1708984 4.8388672 4.8388672 4.8388672h4.8271484v18.8320313c0 2.6679688 2.1708984 4.8388672 4.8388672 4.8388672h18.4902344c2.6679688 0 4.8388672-2.1708984 4.8388672-4.8388672v-18.8320313h4.8271484c2.6679688 0 4.8388672-2.1708984 4.8388672-4.8388672v-12.9404297c0-2.6679687-2.1708984-4.8388671-4.8388672-4.8388671zm-31.4951172 41.4501953v-29.3876953h18.3735352v32.7265625h-15.034668c-1.8408203 0-3.3388672-1.4980469-3.3388672-3.3388672zm25.1679688 0c0 1.8408203-1.4980469 3.3388672-3.3388672 3.3388672h-1.9555664v-32.7265625h5.2944336zm9.6660156-23.6708985c0 1.8408203-1.4980469 3.3388672-3.3388672 3.3388672h-4.8271484v-9.0556641h1.9960938c.4140625 0 .75-.3359375.75-.75s-.3359375-.75-.75-.75h-2.7460938-26.6679688-2.7460938c-.4140625 0-.75.3359375-.75.75s.3359375.75.75.75h1.9960938v9.0556641h-4.8271484c-1.8408203 0-3.3388672-1.4980469-3.3388672-3.3388672v-12.9404297c0-1.8408203 1.4980469-3.3388672 3.3388672-3.3388672h37.8222656c1.8408203 0 3.3388672 1.4980469 3.3388672 3.3388672z"/><path d="m24.7114258 33.796875h-3.2441406c-1.5410156 0-2.7944336 1.2529297-2.7944336 2.7939453v3.2207031c0 1.5410156 1.253418 2.7949219 2.7944336 2.7949219h3.2441406c1.5410156 0 2.7944336-1.2539063 2.7944336-2.7949219v-3.2207031c0-1.5410156-1.253418-2.7939453-2.7944336-2.7939453zm1.2944336 6.0146484c0 .7138672-.5805664 1.2949219-1.2944336 1.2949219h-3.2441406c-.7138672 0-1.2944336-.5810547-1.2944336-1.2949219v-3.2207031c0-.7138672.5805664-1.2939453 1.2944336-1.2939453h3.2441406c.7138672 0 1.2944336.5800781 1.2944336 1.2939453z"/></g></svg>