<?xml version="1.0" encoding="UTF-8"?>
<svg xmlns="http://www.w3.org/2000/svg" xmlns:xlink="http://www.w3.org/1999/xlink" version="1.1" id="Capa_1" x="0px" y="0px" viewBox="0 0 512 512" style="enable-background:new 0 0 512 512;" xml:space="preserve" width="512" height="512">
<g>
	<path style="fill:none;stroke:#000000;stroke-width:15;stroke-linecap:round;stroke-linejoin:round;stroke-miterlimit:10;" d="&#10;&#9;&#9;M429.39,73.23h38c20.5,0,37.11,16.62,37.11,37.11v291.32c0,20.5-16.61,37.11-37.11,37.11H44.61c-20.5,0-37.11-16.61-37.11-37.11&#10;&#9;&#9;V110.34c0-20.49,16.61-37.11,37.11-37.11h349.78"/>
	<g>
		<path style="fill:none;stroke:#000000;stroke-width:15;stroke-linecap:round;stroke-linejoin:round;stroke-miterlimit:10;" d="&#10;&#9;&#9;&#9;M192.17,335.232c18.42,9.66,30.98,28.97,30.98,51.21v7.93h-115.6v-7.93c0-22.23,12.56-41.54,30.97-51.2"/>
		<path style="fill:none;stroke:#000000;stroke-width:15;stroke-linecap:round;stroke-linejoin:round;stroke-miterlimit:10;" d="&#10;&#9;&#9;&#9;M84.08,179.68c-4.2,8.59-6.56,18.23-6.56,28.42c0,13.27,3.99,25.61,10.86,35.9"/>
		<path style="fill:none;stroke:#000000;stroke-width:15;stroke-linecap:round;stroke-linejoin:round;stroke-miterlimit:10;" d="&#10;&#9;&#9;&#9;M106.23,154.23c10.5-7.1,23.2-11.26,36.87-11.26c20.79,0,39.32,9.62,51.34,24.61c6.8-8.13,15.43-13,24.82-13&#10;&#9;&#9;&#9;c21.94,0,39.74,26.56,39.74,59.33c0,13.97-3.24,26.81-8.65,36.95"/>
		<path style="fill:none;stroke:#000000;stroke-width:15;stroke-linecap:round;stroke-linejoin:round;stroke-miterlimit:10;" d="&#10;&#9;&#9;&#9;M105.799,242.52c-0.1,0-0.153,0-0.153,0H95.543c-4.978,0-9.485,2.021-12.749,5.278c-3.257,3.264-5.278,7.77-5.278,12.749&#10;&#9;&#9;&#9;c0,9.957,8.069,18.026,18.026,18.026h7.272"/>
		<path style="fill:none;stroke:#000000;stroke-width:15;stroke-linecap:round;stroke-linejoin:round;stroke-miterlimit:10;" d="&#10;&#9;&#9;&#9;M227.888,278.573h7.265c4.978,0,9.485-2.021,12.749-5.278c3.257-3.264,5.278-7.77,5.278-12.749&#10;&#9;&#9;&#9;c0-9.957-8.069-18.026-18.026-18.026h-10.097h-0.007"/>
		<path style="fill:none;stroke:#000000;stroke-width:15;stroke-linecap:round;stroke-linejoin:round;stroke-miterlimit:10;" d="&#10;&#9;&#9;&#9;M165.348,341.266c-36.604,0-65.385-31.3-62.308-67.778l2.606-30.968c0,0,58.479,0.578,89.261-37.296&#10;&#9;&#9;&#9;c0,0,6.893,31.592,30.144,37.296h0.007l2.606,30.968C230.733,309.966,201.952,341.266,165.348,341.266z"/>
		<g>
			
				<line style="fill:none;stroke:#000000;stroke-width:15;stroke-linecap:round;stroke-linejoin:round;stroke-miterlimit:10;" x1="149.211" y1="254.99" x2="149.211" y2="265.692"/>
			
				<line style="fill:none;stroke:#000000;stroke-width:15;stroke-linecap:round;stroke-linejoin:round;stroke-miterlimit:10;" x1="181.491" y1="254.99" x2="181.491" y2="265.692"/>
		</g>
		<path style="fill:none;stroke:#000000;stroke-width:15;stroke-linecap:round;stroke-linejoin:round;stroke-miterlimit:10;" d="&#10;&#9;&#9;&#9;M149.215,291.217c10.093,5.344,22.178,5.344,32.272,0"/>
	</g>
	<path style="fill:none;stroke:#000000;stroke-width:15;stroke-linecap:round;stroke-linejoin:round;stroke-miterlimit:10;" d="&#10;&#9;&#9;M288.16,345.29v21.7c0,15.12-12.26,27.38-27.38,27.38H75.73c-15.12,0-27.38-12.26-27.38-27.38V147.25&#10;&#9;&#9;c0-15.12,12.26-27.38,27.38-27.38h185.05c15.12,0,27.38,12.26,27.38,27.38v163.04"/>
	
		<line style="fill:none;stroke:#000000;stroke-width:15;stroke-linecap:round;stroke-linejoin:round;stroke-miterlimit:10;" x1="321.182" y1="146.414" x2="421.501" y2="146.414"/>
	
		<line style="fill:none;stroke:#000000;stroke-width:15;stroke-linecap:round;stroke-linejoin:round;stroke-miterlimit:10;" x1="321.182" y1="181.635" x2="472.324" y2="181.635"/>
	
		<line style="fill:none;stroke:#000000;stroke-width:15;stroke-linecap:round;stroke-linejoin:round;stroke-miterlimit:10;" x1="321.182" y1="216.856" x2="348.089" y2="216.856"/>
	
		<line style="fill:none;stroke:#000000;stroke-width:15;stroke-linecap:round;stroke-linejoin:round;stroke-miterlimit:10;" x1="321.182" y1="252.078" x2="361.642" y2="252.078"/>
	
		<line style="fill:none;stroke:#000000;stroke-width:15;stroke-linecap:round;stroke-linejoin:round;stroke-miterlimit:10;" x1="405.989" y1="252.078" x2="472.324" y2="252.078"/>
	<g>
		<path style="fill:none;stroke:#000000;stroke-width:15;stroke-linecap:round;stroke-linejoin:round;stroke-miterlimit:10;" d="&#10;&#9;&#9;&#9;M340.52,374.85h-1.5c-8.84,0-16.01-7.16-16.01-16c0-9.87,1.09-19.68,3.23-29.25c2.14-9.58,5.34-18.92,9.54-27.84&#10;&#9;&#9;&#9;c2.36-5.02,6.07-9.12,10.57-11.98c4.5-2.86,9.79-4.46,15.33-4.46h43.56c4.41,0,8.27,2.96,9.42,7.21l10.36,38.37l27.94,5.45&#10;&#9;&#9;&#9;c7.52,1.47,12.94,8.05,12.94,15.71v6.79c0,8.84-7.16,16-16,16h-2.8"/>
		
			<line style="fill:none;stroke:#000000;stroke-width:15;stroke-linecap:round;stroke-linejoin:round;stroke-miterlimit:10;" x1="411.89" y1="374.85" x2="375.73" y2="374.85"/>
		
			<line style="fill:none;stroke:#000000;stroke-width:15;stroke-linecap:round;stroke-linejoin:round;stroke-miterlimit:10;" x1="407.896" y1="374.857" x2="378.726" y2="374.857"/>
		
			<circle style="fill:none;stroke:#000000;stroke-width:15;stroke-linecap:round;stroke-linejoin:round;stroke-miterlimit:10;" cx="358.122" cy="374.856" r="17.605"/>
		
			<circle style="fill:none;stroke:#000000;stroke-width:15;stroke-linecap:round;stroke-linejoin:round;stroke-miterlimit:10;" cx="429.499" cy="374.856" r="17.605"/>
		
			<line style="fill:none;stroke:#000000;stroke-width:15;stroke-linecap:round;stroke-linejoin:round;stroke-miterlimit:10;" x1="425.015" y1="330.902" x2="325.964" y2="330.902"/>
		
			<line style="fill:none;stroke:#000000;stroke-width:15;stroke-linecap:round;stroke-linejoin:round;stroke-miterlimit:10;" x1="388.751" y1="285.324" x2="388.751" y2="330.902"/>
		
			<line style="fill:none;stroke:#000000;stroke-width:15;stroke-linecap:round;stroke-linejoin:round;stroke-miterlimit:10;" x1="360.685" y1="285.324" x2="360.685" y2="330.902"/>
	</g>
</g>















</svg>
