<svg id="magicoon-Bold" height="512" viewBox="0 0 512 512" width="512" xmlns="http://www.w3.org/2000/svg"><g id="log-out-Bold"><path id="log-out-Bold-2" d="m277.347 448a21.327 21.327 0 0 1 -21.333 21.333h-85.333a106.792 106.792 0 0 1 -106.667-106.666v-213.334a106.792 106.792 0 0 1 106.667-106.666h85.333a21.333 21.333 0 0 1 0 42.666h-85.333a64.07 64.07 0 0 0 -64 64v213.334a64.07 64.07 0 0 0 64 64h85.333a21.327 21.327 0 0 1 21.333 21.333zm169.021-183.849a21.4 21.4 0 0 0 -4.622-23.253l-85.315-85.315a21.331 21.331 0 1 0 -30.167 30.167l48.917 48.917h-161.834a21.333 21.333 0 1 0 0 42.666h161.834l-48.917 48.917a21.331 21.331 0 1 0 30.167 30.167l85.315-85.317a21.291 21.291 0 0 0 4.622-6.949z" data-name="log-out-Bold"/></g></svg>