<?xml version="1.0" encoding="UTF-8"?>
<svg id="Layer_1" xmlns="http://www.w3.org/2000/svg" version="1.1" viewBox="0 0 48 48">
  <!-- Generator: Adobe Illustrator 29.3.1, SVG Export Plug-In . SVG Version: 2.1.0 Build 151)  -->
  <g>
    <path d="M5.6,25.2c-.3,0-.6,0-.9-.1-1.4-.3-2.6-1.1-3.3-2.4-1.5-2.5-.9-5.9,1.4-7.6L21.1,1.5c1.7-1.3,4-1.3,5.7,0l1.2.9c.4.3.5,1,.2,1.4s-1,.5-1.4.2l-1.2-.9c-1-.8-2.3-.8-3.4,0L3.9,16.7c-1.5,1.1-1.9,3.3-.9,5,.5.8,1.2,1.3,2,1.5s1.5,0,2.2-.5l14.4-10.7c.4-.3,1.1-.2,1.4.2s.2,1.1-.2,1.4l-14.3,10.6c-.9.7-1.9,1-2.9,1Z"/>
    <path d="M42.4,25.2c-1,0-2-.3-2.9-1l-1.8-1.3,1.2-1.6,1.8,1.3c.5.4,1.1.6,1.7.6,1,0,2-.6,2.5-1.5,1-1.6.6-3.9-.9-5l-.8-.7,1.2-1.6.9.7c2.3,1.7,2.9,5.1,1.4,7.6-1,1.6-2.6,2.5-4.3,2.5Z"/>
    <path d="M40.7,47.5h-11c-.6,0-1-.4-1-1v-9.8c0-3-2.1-5.4-4.8-5.4s-4.8,2.4-4.8,5.4v9.8c0,.6-.4,1-1,1H7.1c-.6,0-1-.4-1-1v-22.3c0-.6.4-1,1-1s1,.4,1,1v21.3h9v-8.8c0-4.1,3-7.4,6.8-7.4s6.8,3.3,6.8,7.4v8.8h9v-21.3c0-.6.4-1,1-1s1,.4,1,1v22.3c0,.6-.4,1-1,1Z"/>
    <path d="M33.3,24.5c-6.6,0-12-5.4-12-12S26.7.5,33.3.5s3.4.4,5,1.1c4.3,1.9,7,6.2,7,10.9s-5.4,12-12,12ZM33.3,2.5c-5.5,0-10,4.5-10,10s4.5,10,10,10,10-4.5,10-10-2.3-7.5-5.8-9.1c-1.3-.6-2.7-.9-4.2-.9Z"/>
  </g>
  <path d="M32.5,12.8c.5-.4.9-.9,1.2-1.4.3-.5.5-.9.5-1.3s0-.5-.2-.6-.3-.2-.5-.2-.4,0-.5.3c-.1.2-.2.5-.2.9h-2.3c0-.7.2-1.3.5-1.8.3-.5.7-.8,1.1-1,.5-.2,1-.3,1.5-.3,1,0,1.7.2,2.2.7.5.5.7,1.1.7,1.9s-.3,1.6-.8,2.3c-.6.7-1.2,1.4-2.1,2h3v1.9h-6.1v-1.8c.8-.6,1.4-1.1,1.9-1.6Z"/>
</svg>