<svg height="512" viewBox="0 0 128 128" width="512" xmlns="http://www.w3.org/2000/svg"><g><path d="m110.163 63.894a15.809 15.809 0 0 0 -30.336-6.241l-4.14-4.139v-7.242l10-9.995h12.549a1.749 1.749 0 0 0 1.75-1.75v-16.406a1.749 1.749 0 0 0 -1.75-1.75h-15.088l-15.857-15.858a1.75 1.75 0 0 0 -1.237-.513h-10.942a1.75 1.75 0 0 0 -1.674 2.262l2.979 9.73-7.061 7.06h-9.029a1.753 1.753 0 0 0 -1.595 1.029l-4.489 9.929-6.909-4.61a1.751 1.751 0 0 0 -2.208.219l-6.776 6.781a1.746 1.746 0 0 0 -.513 1.238v6.362a1.746 1.746 0 0 0 .513 1.238l24.85 24.85v13.137a1.75 1.75 0 0 0 .513 1.237l9.5 9.5v9.594a1.752 1.752 0 0 0 .513 1.238l16.4 16.394a1.748 1.748 0 0 0 1.237.513h12.944l5.651 9.449a1.75 1.75 0 0 0 1.5.852h7.392a1.75 1.75 0 0 0 1.75-1.75v-5.852h4.138a1.75 1.75 0 0 0 1.75-1.75v-41.787a26.279 26.279 0 0 0 3.675-12.969zm-15.812-12.312a12.326 12.326 0 0 1 12.312 12.312c0 10.723-9.191 19.254-12.314 21.842-3.124-2.582-12.311-11.091-12.311-21.842a12.326 12.326 0 0 1 12.313-12.312zm8.639 65.32h-4.138a1.75 1.75 0 0 0 -1.75 1.75v5.848h-4.65l-5.652-9.449a1.753 1.753 0 0 0 -1.5-.852h-13.222l-15.37-15.37v-9.594a1.75 1.75 0 0 0 -.508-1.235l-9.5-9.5v-13.137a1.749 1.749 0 0 0 -.512-1.237l-24.851-24.848v-4.916l5.249-5.25 7.432 4.954a1.75 1.75 0 0 0 2.565-.735l4.873-10.779h8.625a1.749 1.749 0 0 0 1.237-.512l8.318-8.317a1.749 1.749 0 0 0 .436-1.75l-2.594-8.473h7.851l15.857 15.858a1.754 1.754 0 0 0 1.238.513h14.062v12.906h-11.529a1.75 1.75 0 0 0 -1.237.513l-11.02 11.02a1.75 1.75 0 0 0 -.513 1.237v8.692a1.75 1.75 0 0 0 .513 1.237l6.037 6.036a15.859 15.859 0 0 0 -.2 2.382c0 14.66 14.186 25.055 14.789 25.49a1.748 1.748 0 0 0 2.047 0 43.471 43.471 0 0 0 7.616-7.405z"/><path d="m94.351 71.707a7.813 7.813 0 1 0 -7.813-7.813 7.822 7.822 0 0 0 7.813 7.813zm0-12.125a4.313 4.313 0 1 1 -4.313 4.312 4.317 4.317 0 0 1 4.313-4.312z"/></g></svg>