<svg fill="none" height="512" viewBox="0 0 24 24" width="512" xmlns="http://www.w3.org/2000/svg"><g clip-rule="evenodd" fill="rgb(0,0,0)" fill-rule="evenodd"><path d="m17.125 5.20716c-2.6939-3.14288-7.55603-3.14288-10.24993 0-1.04862 1.22339-1.62502 2.78154-1.62502 4.39284v3.2722c0 .7005-.34181 1.357-.91573 1.7588-1.76089 1.2326-.88872 3.9995 1.26073 3.9995h12.81005c2.1494 0 3.0216-2.7669 1.2607-3.9995-.5739-.4018-.9157-1.0583-.9157-1.7588v-3.2722c0-1.6113-.5764-3.16945-1.6251-4.39284zm-1.1388.97618c-2.0953-2.44446-5.877-2.44446-7.97224 0-.8156.95153-1.26391 2.16342-1.26391 3.41666v3.2722c0 1.19-.58062 2.3052-1.55553 2.9876-.55944.3916-.28235 1.2707.40053 1.2707h12.81005c.6828 0 .9599-.8791.4005-1.2707-.9749-.6824-1.5555-1.7976-1.5555-2.9876v-3.2722c0-1.25324-.4484-2.46513-1.2639-3.41666z"/><path d="m8.25 20.4c0-.4142.33579-.75.75-.75h6c.4142 0 .75.3358.75.75s-.3358.75-.75.75h-6c-.41421 0-.75-.3358-.75-.75z"/></g></svg>