<svg viewBox="0 0 32 32" xmlns="http://www.w3.org/2000/svg"><g id="_36-World_wide_shipping" fill="none" stroke="#000" stroke-linecap="round" stroke-linejoin="round" stroke-width="2" data-name="36-World wide shipping"><path d="m1 19v9a2.938 2.938 0 0 0 3 3h24a2.938 2.938 0 0 0 3-3v-22a5 5 0 0 0 -5-5h-6"/><path d="m23 1v8a2.938 2.938 0 0 0 3 3h5"/><path d="m23 7h8"/><rect height="4" rx="1" width="4" x="14" y="22"/><path d="m22 22h5"/><path d="m22 26h2"/><path d="m18.05 5.98a9 9 0 1 1 -17.05 4.02 9 9 0 0 1 7.99-8.94 8.428 8.428 0 0 1 1.01-.06 9 9 0 0 1 8.05 4.98z"/><path d="m2 6s4 1 4 3 0 5 4 4 6-1 7 2"/><path d="m9 1a.145.145 0 0 0 -.01.06c-.11.5-.77 4.01 2.01 4.94 3 1 4-1 7 0"/></g></svg>