<svg fill="none" height="24" viewBox="0 0 24 24" width="24" xmlns="http://www.w3.org/2000/svg" xmlns:xlink="http://www.w3.org/1999/xlink"><clipPath id="clip0_1_4244"><path d="m0 0h24v24h-24z"/></clipPath><g clip-path="url(#clip0_1_4244)" clip-rule="evenodd" fill="#000" fill-rule="evenodd"><path d="m3 2c-.54772 0-1 .45228-1 1v5c0 .54772.45228 1 1 1h5c.54772 0 1-.45228 1-1v-5c0-.54772-.45228-1-1-1zm-3 1c0-1.65228 1.34772-3 3-3h5c1.65228 0 3 1.34772 3 3v5c0 1.65228-1.34772 3-3 3h-5c-1.65228 0-3-1.34772-3-3z"/><path d="m3 15c-.54772 0-1 .4523-1 1v5c0 .5477.45228 1 1 1h5c.54772 0 1-.4523 1-1v-5c0-.5477-.45228-1-1-1zm-3 1c0-1.6523 1.34772-3 3-3h5c1.65228 0 3 1.3477 3 3v5c0 1.6523-1.34772 3-3 3h-5c-1.65228 0-3-1.3477-3-3z"/><path d="m16 2c-.5477 0-1 .45228-1 1v5c0 .54772.4523 1 1 1h5c.5477 0 1-.45228 1-1v-5c0-.54772-.4523-1-1-1zm-3 1c0-1.65228 1.3477-3 3-3h5c1.6523 0 3 1.34772 3 3v5c0 1.65228-1.3477 3-3 3h-5c-1.6523 0-3-1.34772-3-3z"/><path d="m13 14c0-.5523.4477-1 1-1h3c.5523 0 1 .4477 1 1s-.4477 1-1 1h-2v2c0 .5523-.4477 1-1 1s-1-.4477-1-1z"/><path d="m23 13c.5523 0 1 .4477 1 1v3c0 .5523-.4477 1-1 1h-6c-.5523 0-1-.4477-1-1s.4477-1 1-1h5v-2c0-.5523.4477-1 1-1z"/><path d="m13 20c0-.5523.4477-1 1-1h3c.5523 0 1 .4477 1 1v3c0 .5523-.4477 1-1 1s-1-.4477-1-1v-2h-2c-.5523 0-1-.4477-1-1z"/><path d="m20 19c.5523 0 1 .4477 1 1v2h2c.5523 0 1 .4477 1 1s-.4477 1-1 1h-3c-.5523 0-1-.4477-1-1v-3c0-.5523.4477-1 1-1z"/><path d="m3 4c0-.55228.44772-1 1-1h3c.55228 0 1 .44772 1 1v3c0 .55228-.44772 1-1 1h-3c-.55228 0-1-.44772-1-1zm2 1v1h1v-1z"/></g></svg>