<?xml version="1.0" encoding="UTF-8"?>
<svg xmlns="http://www.w3.org/2000/svg" viewBox="0 0 64 64" width="512" height="512"><g id="Cash-Finance-Loan-Money-Income"><path d="M40,13a7,7,0,1,0-7,7A7.008,7.008,0,0,0,40,13ZM28,13a5,5,0,1,1,5,5A5.006,5.006,0,0,1,28,13Z"/><path d="M49,2H17a4,4,0,0,0,0,8h2v8.61l-4.24,7.34a16.835,16.835,0,0,0-2.17,10.38L14,49.06V52H13a1,1,0,0,0-1,1v8a1,1,0,0,0,1,1H31a1,1,0,0,0,1-1V53a1,1,0,0,0-1-1h-.83l1.26-2.1A10.983,10.983,0,0,0,33,44.23v-1.3a10.907,10.907,0,0,0-.79-4.09L31.87,38H46a1,1,0,0,0,1-1V10h2a4,4,0,0,0,0-8ZM21,29.07a7.674,7.674,0,0,1,2,.53V36H21ZM17,8a2.006,2.006,0,0,1-2-2,2.015,2.015,0,0,1,2-2h2V8ZM30,60H14V54H30Zm1-15.77a8.945,8.945,0,0,1-1.29,4.64l-1.57,2.62A1,1,0,0,0,28,52H16V49a.41.41,0,0,0-.01-.11L14.57,36.11a14.908,14.908,0,0,1,1.93-9.16L19,22.61V37a1,1,0,0,0,1,1h3v1h2V29a2.006,2.006,0,0,1,2-2,2.015,2.015,0,0,1,2,2v7a.937.937,0,0,0,.07.37l1.28,3.22A8.793,8.793,0,0,1,31,42.93ZM45,36H38.07A8,8,0,0,1,45,29.07Zm0-8.95A10.012,10.012,0,0,0,36.05,36H31.08L31,35.81V29a3.993,3.993,0,0,0-7.72-1.44,9.884,9.884,0,0,0-2.28-.5V4H45ZM50.41,7.41A1.983,1.983,0,0,1,49,8H47V4h2a2.006,2.006,0,0,1,2,2A1.983,1.983,0,0,1,50.41,7.41Z"/><path d="M60.906,34.576A1,1,0,0,0,60,34H58V16H56V35a1,1,0,0,0,1,1h.865L55,39.438,52.135,36H53a1,1,0,0,0,1-1V16H52V34H50a1,1,0,0,0-.768,1.64l5,6a1,1,0,0,0,1.536,0l5-6A1,1,0,0,0,60.906,34.576Z"/><path d="M14.906,20.576A1,1,0,0,0,14,20H12V2H10V21a1,1,0,0,0,1,1h.865L9,25.438,6.135,22H7a1,1,0,0,0,1-1V2H6V20H4a1,1,0,0,0-.768,1.64l5,6a1,1,0,0,0,1.536,0l5-6A1,1,0,0,0,14.906,20.576Z"/></g></svg>
