<svg enable-background="new 0 0 512 512" height="512" viewBox="0 0 512 512" width="512" xmlns="http://www.w3.org/2000/svg"><g id="_x33_0_Withdraw"><g><g><path d="m475.421 122.144h-438.847c-19.003 0-34.464 15.463-34.464 34.466v147.459c0 19.003 15.46 34.466 34.464 34.466h57.806v131.054c0 22.337 18.148 40.3 40.3 40.3h242.634c22.109 0 40.3-17.917 40.3-40.3v-131.054h57.806c19.009 0 34.469-15.463 34.469-34.466v-147.459c0-19.003-15.46-34.466-34.468-34.466zm-57.806 113.486h13.032c2.924 0 5.289-2.368 5.289-5.289s-2.366-5.289-5.289-5.289c-157.276 0-201.617 0-349.299 0-2.924 0-5.289 2.368-5.289 5.289s2.366 5.289 5.289 5.289h13.032v45.644h-35.006v-101.869h393.252v101.869h-35.011zm-257.221 0h32.229c2.678 32.618 30.051 58.353 63.377 58.353 32.024 0 60.444-24.203 63.292-58.353h32.31v169.967c-21.896 2.443-39.334 19.882-41.778 41.778h-107.653c-.408-3.567-1.229-7.071-2.448-10.46-6.033-17.229-21.452-29.306-39.329-31.315zm42.8 0h105.612c-2.71 27.222-25.796 47.775-52.806 47.775-27.49 0-50.166-20.995-52.806-47.775zm203.842 233.959c0 16.363-13.292 29.722-29.722 29.722h-242.634c-16.398 0-29.722-13.33-29.722-29.722v-233.959h44.856v174.962c0 2.921 2.366 5.289 5.289 5.289 15.579 0 29.5 9.856 34.649 24.572 1.42 3.944 2.138 8.053 2.138 12.211 0 2.921 2.366 5.289 5.289 5.289h117.637c2.924 0 5.289-2.368 5.289-5.289 0-20.282 16.498-36.783 36.783-36.783 2.924 0 5.289-2.368 5.289-5.289v-174.962h44.856v233.959zm92.275-165.52c0 13.172-10.718 23.887-23.89 23.887h-57.806v-36.104h40.3c2.924 0 5.289-2.368 5.289-5.289v-112.447c0-2.921-2.366-5.289-5.289-5.289h-403.83c-2.924 0-5.289 2.368-5.289 5.289v112.448c0 2.921 2.366 5.289 5.289 5.289h40.295v36.104h-57.806c-13.172 0-23.885-10.716-23.885-23.887v-147.46c0-13.172 10.713-23.887 23.885-23.887h438.847c13.172 0 23.89 10.716 23.89 23.887z"/><path d="m256 401.47c10.331 0 18.74-8.407 18.74-18.74v-38.57c0-10.333-8.409-18.74-18.74-18.74s-18.74 8.407-18.74 18.74v38.57c0 10.334 8.409 18.74 18.74 18.74zm-8.161-57.31c0-4.499 3.662-8.161 8.161-8.161s8.161 3.662 8.161 8.161v38.57c0 4.499-3.662 8.161-8.161 8.161s-8.161-3.662-8.161-8.161z"/><path d="m245.721 102.704c4.143 4.191 10.901 4.204 15.057 0l37.325-37.821c3.006-3.048 3.879-7.567 2.226-11.519-1.653-3.944-5.48-6.493-9.757-6.493-.005 0-.005 0-.01 0l-14.463.018v-34.2c0-5.834-4.747-10.579-10.579-10.579h-24.432c-5.832 0-10.579 4.744-10.579 10.579v34.283l-14.504.018c-4.277.005-8.104 2.559-9.752 6.508-1.648 3.946-.764 8.463 2.237 11.503zm-9.918-45.158c2.918-.003 5.284-2.371 5.284-5.289v-39.568h24.432v39.495c0 2.919 2.364 5.289 5.289 5.289h.005l19.758-.023-37.32 37.821-37.237-37.702z"/></g></g></g></svg>