<svg id="&#x421;&#x43B;&#x43E;&#x439;_1" viewBox="0 0 128 128" xmlns="http://www.w3.org/2000/svg"><path d="m105.21 12h-83a12 12 0 0 0 0 24h5.79v63a2 2 0 0 0 2.85 1.77l7.65-3.6 7.66 3.6a2 2 0 0 0 1.7 0l7.65-3.6 7.65 3.6a2 2 0 0 0 1.7 0l7.65-3.6 7.65 3.6a2 2 0 0 0 1.7 0l7.64-3.6 7.65 3.6a2 2 0 0 0 2.85-1.77v-63h5.21a12 12 0 0 0 0-24zm-16.56 81.19-7.65 3.6-7.65-3.6a2 2 0 0 0 -1.7 0l-7.65 3.6-7.65-3.6a2 2 0 0 0 -1.7 0l-7.65 3.6-7.65-3.6a2 2 0 0 0 -1.71 0l-5.64 2.66v-53.85h1a2 2 0 0 0 0-4h-1v-12h64v12h-1a2 2 0 0 0 0 4h1v53.85l-5.65-2.66a2 2 0 0 0 -1.7 0zm16.56-61.19h-5.21v-6h6a2 2 0 0 0 0-4h-84a2 2 0 0 0 0 4h6v6h-5.83a8 8 0 0 1 0-16h83a8 8 0 0 1 0 16z"/><path d="m87.71 38h-3.65a2 2 0 0 0 0 4h3.65a2 2 0 0 0 0-4z"/><path d="m43.94 38h-3.65a2 2 0 1 0 0 4h3.65a2 2 0 0 0 0-4z"/><path d="m76.76 38h-3.64a2 2 0 0 0 0 4h3.64a2 2 0 0 0 0-4z"/><path d="m56.88 40a2 2 0 0 0 -2-2h-3.64a2 2 0 0 0 0 4h3.64a2 2 0 0 0 2-2z"/><path d="m62.18 42h3.64a2 2 0 0 0 0-4h-3.64a2 2 0 0 0 0 4z"/><path d="m65.16 65.75c-3.82-1.49-6.16-2.55-6.16-4.7 0-3.43 3.38-4.34 5.38-4.34s5.15.85 5.15 4a2 2 0 0 0 4 0c0-4.66-3.59-7.36-7.56-7.93v-1.78a2 2 0 0 0 -4 0v2c-3.75.82-7 3.56-7 8.08 0 5 4.81 6.92 8.68 8.43s6.35 2.59 6.35 4.9c0 3.21-2.75 4.59-6 4.59-2.74 0-6-1.69-6-4.81a2 2 0 0 0 -4 0c0 4.93 3.74 7.86 8 8.62v2.19a2 2 0 0 0 4 0v-2.11c4.65-.66 8-3.84 8-8.48 0-5.22-4.9-7.13-8.84-8.66z"/><path d="m64.11 105a2 2 0 0 0 -2 2v11.17l-4.58-4.58a2 2 0 1 0 -2.83 2.82l8 8a2 2 0 0 0 2.83 0l8-8a2 2 0 1 0 -2.83-2.82l-4.59 4.58v-11.17a2 2 0 0 0 -2-2z"/></svg>