<?xml version="1.0"?>
<svg xmlns="http://www.w3.org/2000/svg" viewBox="0 0 512 512"><g id="Layer_2" data-name="Layer 2"><g id="Layer_2_copy_8" data-name="Layer 2 copy 8"><g id="_50" data-name="50"><path d="M151.84,386.6a93.77,93.77,0,0,1-22.92-2.51,117.22,117.22,0,0,1-18.35-6.26v-27h2.6A63.41,63.41,0,0,0,132,362a56.25,56.25,0,0,0,20,3.89,50.3,50.3,0,0,0,6.44-.53,22.7,22.7,0,0,0,6.45-1.68,14.14,14.14,0,0,0,5-3.62,8.89,8.89,0,0,0,2.06-6.14,8.49,8.49,0,0,0-3.35-6.95,21.54,21.54,0,0,0-8-3.89q-5.81-1.52-12.4-2.9a98.74,98.74,0,0,1-12.32-3.35q-13.2-4.65-18.92-12.51t-5.72-19.69q0-15.94,13.5-25.82t33.72-9.88A100.37,100.37,0,0,1,178.66,271a88,88,0,0,1,18,5.57v25.94h-2.51a56.65,56.65,0,0,0-15.45-9.16,49,49,0,0,0-18.73-3.74,37.75,37.75,0,0,0-6.71.54,25.7,25.7,0,0,0-6.26,2.06,12.57,12.57,0,0,0-4.61,3.62,8.33,8.33,0,0,0-1.95,5.38,8.48,8.48,0,0,0,3.09,6.9q3.09,2.56,11.94,4.62c3.81.87,7.49,1.7,11,2.52a103.58,103.58,0,0,1,11.33,3.35q11.82,4.27,17.59,11.49t5.76,19q0,16.94-13.32,27.23T151.84,386.6Z"/><path d="M203.49,384.54,241.86,271H273l38.37,113.59H282l-7.09-23.19H239.19l-7.09,23.19Zm65.15-43.79L257.05,303.3l-11.6,37.45Z"/><path d="M344.47,384.54V292.62H310.9V271h95.67v21.67H373v91.92Z"/><path d="M494,94.86c-8.16-34-42.81-68.66-76.83-76.83A729.1,729.1,0,0,0,94.86,18C60.89,26.19,26.2,60.84,18,94.86a729.1,729.1,0,0,0,0,322.28c8.17,34,42.86,68.67,76.83,76.83A733.83,733.83,0,0,0,256,512a733.83,733.83,0,0,0,161.14-18c34-8.17,68.67-42.86,76.83-76.83A729.1,729.1,0,0,0,494,94.86ZM63.74,63.72C75,52.45,88.33,44.33,100.31,41.41A712.34,712.34,0,0,1,256,24h0A712.27,712.27,0,0,1,411.69,41.41c12,2.92,25.32,11.05,36.59,22.33s19.39,24.59,22.31,36.57q4.68,20.81,8.07,41.69H33.34q3.4-20.88,8.07-41.69C44.33,88.32,52.46,75,63.74,63.72Zm406.85,348c-2.92,12-11,25.3-22.31,36.57s-24.6,19.41-36.59,22.33A712.45,712.45,0,0,1,256,488a713,713,0,0,1-155.69-17.4c-12-2.92-25.3-11.05-36.57-22.32s-19.41-24.6-22.33-36.59A705.45,705.45,0,0,1,29.82,166H482.18A705.46,705.46,0,0,1,470.59,411.69Z"/></g></g></g></svg>
