<svg id="Layer_2" enable-background="new 0 0 512 512" viewBox="0 0 512 512" xmlns="http://www.w3.org/2000/svg"><g><g><path d="m256 512c-2.1 0-4.1-.5-6-1.6l-106-61.2c-34.8-20.1-63.8-49.1-83.9-83.9s-30.7-74.4-30.7-114.6v-94.5c0-21.5 11.6-41.5 30.2-52.2l166.2-96c18.6-10.7 41.7-10.7 60.3 0l166.2 96c18.6 10.7 30.2 30.8 30.2 52.2v94.5c0 40.2-10.6 79.8-30.7 114.6s-49.1 63.8-83.9 83.9l-106 61.2c-1.8 1.1-3.8 1.6-5.9 1.6zm0-488.2c-6.3 0-12.6 1.6-18.2 4.9l-166.2 96c-11.3 6.5-18.2 18.6-18.2 31.6v94.5c0 73.1 39.3 141.2 102.6 177.8l100 57.7 100.1-57.8c63.3-36.6 102.6-104.7 102.6-177.8v-94.5c0-13-7-25.1-18.2-31.6l-166.2-96c-5.7-3.1-12-4.8-18.3-4.8z"/></g><g><path d="m256 378.4c-6.2 0-12.5-2.4-17.2-7.1l-98.5-98.5c-15.4-15.4-23.9-35.9-23.9-57.7s8.5-42.3 23.9-57.7 35.9-23.9 57.7-23.9 42.2 8.5 57.6 23.8c0 0 .1.1.1.1s.2.2.4.2.3-.1.4-.2c15.4-15.4 35.9-23.9 57.7-23.9s42.3 8.5 57.7 23.9 23.9 35.8 23.9 57.7-8.5 42.3-23.9 57.7l-8.8 8.8-89.7 89.7c-4.9 4.7-11.2 7.1-17.4 7.1zm-.4-24c.2.2.6.2.8 0l89.7-89.7 8.8-8.8c10.9-10.9 16.9-25.4 16.9-40.8s-6-29.9-16.9-40.8-25.4-16.9-40.8-16.9-29.9 6-40.8 16.9c-4.6 4.6-10.7 7.2-17.2 7.2s-12.6-2.5-17.2-7.1c0 0-.1-.1-.1-.1-10.9-10.9-25.4-16.9-40.8-16.9s-29.9 6-40.8 16.9-16.9 25.4-16.9 40.8 6 29.9 16.9 40.8z"/></g></g></svg>