<?xml version="1.0"?>
<svg xmlns="http://www.w3.org/2000/svg" id="Layer_1" data-name="Layer 1" viewBox="0 0 30 30"><path d="M3.041,29.75H5.074A2.787,2.787,0,0,0,7.7,27.87a10.015,10.015,0,0,1,4.846.89,10.133,10.133,0,0,0,4.349.867,18.26,18.26,0,0,0,3.626-.393,9.8,9.8,0,0,0,5.1-2.827l3.321-3.444a2.877,2.877,0,0,0,.147-3.838c-.944-1.131-2.235-1.306-3.877-.5l-3.442,1.925c0-.026.007-.049.007-.075A3.02,3.02,0,0,0,20.364,17.9c-.3-.19-.648-.4-1-.613a10.484,10.484,0,0,0-8.342-1.133A8.1,8.1,0,0,0,7.78,17.929a2.791,2.791,0,0,0-2.706-2.137H3.041A2.794,2.794,0,0,0,.25,18.583v8.376A2.794,2.794,0,0,0,3.041,29.75ZM11.423,17.6a8.987,8.987,0,0,1,7.164.974c.355.21.689.416.977.6a1.529,1.529,0,0,1,.709,1.3,1.551,1.551,0,0,1-1.549,1.55H15.732a.75.75,0,0,0,0,1.5h2.992a3.009,3.009,0,0,0,1.365-.338.585.585,0,0,0,.09-.028l5.724-3.2c1.258-.614,1.706-.252,2.028.132a1.378,1.378,0,0,1-.072,1.839l-3.324,3.446a8.3,8.3,0,0,1-4.317,2.4c-2,.411-4.844.681-7.005-.348a11.976,11.976,0,0,0-5.348-1.066V20.065A6.6,6.6,0,0,1,11.423,17.6Zm-9.673.983a1.292,1.292,0,0,1,1.291-1.291H5.074a1.292,1.292,0,0,1,1.291,1.291v8.376A1.292,1.292,0,0,1,5.074,28.25H3.041A1.292,1.292,0,0,1,1.75,26.959Z"/><path d="M14.175.25A2.753,2.753,0,0,0,11.425,3v8.225a2.753,2.753,0,0,0,2.75,2.75H27a2.753,2.753,0,0,0,2.75-2.75V3A2.753,2.753,0,0,0,27,.25ZM27,12.475H14.175a1.251,1.251,0,0,1-1.25-1.25V5.487H28.25v5.738A1.252,1.252,0,0,1,27,12.475ZM28.25,3v.987H12.925V3a1.251,1.251,0,0,1,1.25-1.25H27A1.252,1.252,0,0,1,28.25,3Z"/><path d="M15.88,9.127h-1a.75.75,0,0,0,0,1.5h1a.75.75,0,1,0,0-1.5Z"/><path d="M19.351,9.127h-1a.75.75,0,0,0,0,1.5h1a.75.75,0,0,0,0-1.5Z"/><path d="M22.822,9.127h-1a.75.75,0,0,0,0,1.5h1a.75.75,0,0,0,0-1.5Z"/><path d="M26.293,9.127h-1a.75.75,0,0,0,0,1.5h1a.75.75,0,0,0,0-1.5Z"/></svg>
