<?xml version="1.0" encoding="UTF-8"?>
<svg id="Capa_1" xmlns="http://www.w3.org/2000/svg" version="1.1" viewBox="0 0 50 50">
  <!-- Generator: Adobe Illustrator 29.3.1, SVG Export Plug-In . SVG Version: 2.1.0 Build 151)  -->
  <defs>
    <style>
      .st0 {
        fill: #fff;
      }

      .st0, .st1 {
        fill-rule: evenodd;
      }

      .st1 {
        fill: #1d1d1b;
      }
    </style>
  </defs>
  <path class="st1" d="M25,6.3C14.7,6.3,6.3,14.7,6.3,25s8.4,18.7,18.7,18.7,18.7-8.4,18.7-18.7S35.3,6.3,25,6.3h0Z"/>
  <path class="st0" d="M25,7C15.1,7,7,15.1,7,25s8,18,18,18,18-8,18-18S34.9,7,25,7h0Z"/>
  <path class="st1" d="M25,7.8c-9.5,0-17.2,7.7-17.2,17.2s7.7,17.2,17.2,17.2,17.2-7.7,17.2-17.2S34.5,7.8,25,7.8h0Z"/>
  <path class="st0" d="M25,14.3c-5.9,0-10.7,4.8-10.7,10.7s4.8,10.7,10.7,10.7,10.7-4.8,10.7-10.7-4.8-10.7-10.7-10.7h0Z"/>
  <polygon class="st0" points="12.5 30.3 11.4 29.8 10.3 30.3 10.5 29.1 9.7 28.2 10.9 28.2 11.4 27.1 11.9 28.2 13.1 28.2 12.3 29.1 12.5 30.3 12.5 30.3"/>
  <polygon class="st0" points="39.6 30.3 38.5 29.8 37.5 30.3 37.7 29.1 36.8 28.2 38 28.2 38.5 27.1 39.1 28.2 40.3 28.2 39.4 29.1 39.6 30.3 39.6 30.3"/>
  <path class="st1" d="M33.7,26.8s-.6-.6-1.5-.6v-.6s.9,0,1.7.6c0,0,.3.3.9.2,0-.3,0-.6,0-1-.3.1-1,.2-1.7-.3,0,0-.6-.5-1.5-.5v-.6s.9,0,1.7.6c0,0,.6.5,1.4,0-.1-5.4-4.6-9.7-10.1-9.6-5.4.1-9.8,4.6-9.7,10,.9.5,1.5,0,1.5,0,.8-.7,1.7-.7,1.7-.7v.6c-.9,0-1.4.6-1.4.6-.7.5-1.4.4-1.7.3,0,.3,0,.6.1,1,.6.2.9-.2.9-.2.8-.7,1.7-.7,1.7-.7v.6c-.9,0-1.4.6-1.4.6-.4.3-.8.4-1,.3,0,.3.1.5.2.8.4,0,.7-.3.7-.3.7-.7,1.4-.7,1.4-.7v.6c-.7,0-1.2.6-1.2.6-.3.3-.6.3-.8.3.1.2.2.5.3.7.3,0,.4-.2.4-.2.7-.6,1.2-.6,1.2-.6v.5c-.6,0-1,.6-1,.6-.1.1-.2.2-.3.2.1.2.3.4.4.6.3-.3.8-.7,1.3-.6,0,0-.1-.3,0-.7,0,0,.3,0,.6,0,0,0,.6-.4.7-.6,0,0,.1-.3.1-.4,0,0,0-1,.6-1.6.8-.8.2-1.9.2-1.9-.8-2.2.7-3,.7-3-1,1.6-.3,2.8-.3,2.8.7,1.2,0,2,0,2-.6.6-.8,1.5-.8,1.5-.3,1,.5,2,.5,2,0,0-1.6,1.4-1.9,1.1,0,0-.4-.5-.4-.7,0,0-.8,0-1.1.6.2.2.3.4.5.6.4-.4.9-.4.9-.4l.3.4c-.4.1-.6.3-.7.4.1.1.3.3.5.4.3-.4.6-.4.6-.4l.3.3c-.2.1-.3.4-.4.5.3.3.7.5,1.1.7.2-1.1.8-1.6.8-1.6.5-.4.3-1.2.3-1.2.7.7-.1,1.6-.1,1.6-.3.4-.5,1.1-.5,1.4.2,0,.4.2.5.3,0-1,.9-2.2.9-2.2.6-1-.6-2.1-.6-2.1-1.5-1.5-.2-2.8-.2-2.8,1.1-1.3.5-2.4.5-2.4-1.2-2.2.3-3.3.3-3.3-.9,1.9,0,3.2,0,3.2.7,1.2-.5,2.8-.5,2.8-.9,1.4.2,2.3.2,2.3.7.6.8,1.2.8,1.2.3.9-.3,1.5-.3,1.5-.6.8-.7,1.6-.6,2.1.2,0,.4.1.6.2-.4-1.1.8-2.6.8-2.6.6-1-.6-2.1-.6-2.1-1.6-1.5-.2-2.8-.2-2.8,1-1,.2-2.5.2-2.5-1.2-2.2.2-3.3.2-3.3-.9,2,0,3.2,0,3.2.2.4.5.9.5.9.4.9-.5,2-.5,2-.9,1.3.2,2.3.2,2.3.7.6.8,1.2.8,1.2.3.9-.3,1.5-.3,1.5-.8,1.1-.7,2.1-.5,2.5.3,0,.5.1.8.1,0,0,0,0,0,0-.8-1.2.4-2.6.4-2.6.5-.5.3-1.3.3-1.3,0-.9-1-1.6-1-1.6-1.1-.9-.2-1.9-.2-1.9.3-.4.6-1.1.6-1.1.1-.4.7,0,.7,0,.4.2,1,0,1,0,0,0,.5-.4.7,0,0,0,.3.8.6,1.1,0,0,.9,1-.1,1.9,0,0-.9.7-.9,1.6,0,0,0,.8.4,1.3,0,0,1.5,1.6.5,2.6,0,0,0,0,0,0,.2,0,.6,0,.8-.2,0-.4.2-1.4-.6-2.4,0,0-.6-.6-.3-1.5,0,0,.1-.6.8-1.2,0,0,1.1-1,.1-2.3,0,0-1-1-.6-2,0,0,.2-.5.4-.9,0,0,.9-1.2,0-3.2,0,0,1.5,1,.4,3.3,0,0-.7,1.5.3,2.5,0,0,1.4,1.2-.1,2.8,0,0-1.2,1.2-.5,2.1,0,0,1.2,1.4.9,2.6.2,0,.4-.1.6-.2,0-.5,0-1.3-.7-2.1,0,0-.6-.6-.3-1.5,0,0,.1-.6.8-1.2,0,0,1.1-.9.1-2.3,0,0-1.2-1.5-.6-2.8,0,0,.9-1.3,0-3.2,0,0,1.5,1,.4,3.3,0,0-.5,1.1.6,2.3,0,0,1.4,1.2-.1,2.8,0,0-1.2,1.2-.5,2.1,0,0,.9,1.1,1,2.1.2,0,.4-.2.5-.3,0-.4-.2-1-.6-1.4,0,0-.8-.9-.2-1.6,0,0-.2.8.3,1.2,0,0,.6.5.8,1.5.4-.2.7-.5,1-.7,0-.1-.2-.3-.4-.4l.3-.3s.4,0,.6.3c.1-.1.3-.3.4-.4-.1-.1-.3-.3-.7-.4l.3-.4s.5,0,.8.3c.2-.2.3-.4.5-.6-.2-.5-1.1-.6-1.1-.6,0,.2-.4.7-.4.7-.2.4-1.9-1-1.9-1,0,0,.8-1,.5-2,0,0-.2-.9-.8-1.5,0,0-.8-.8-.1-2,0,0,.7-1.2-.4-2.8,0,0,1.6.8.8,3,0,0-.5,1.1.3,1.9.6.6.6,1.6.6,1.6,0,.1.2.4.2.4,0,.1.7.5.7.5.3.1.6,0,.6,0,.2.4,0,.7,0,.7.5,0,1,.3,1.3.5.1-.2.3-.4.4-.6,0,0-.2,0-.3-.2,0,0-.4-.5-1.1-.5v-.5c.1,0,.6,0,1.3.5,0,0,.1.1.3.2.1-.2.2-.5.3-.7-.2,0-.4,0-.7-.3,0,0-.5-.5-1.2-.6v-.6s.7-.1,1.4.6c0,0,.3.3.7.3,0-.3.1-.5.2-.8-.2,0-.6,0-1-.3h0Z"/>
  <path class="st0" d="M29.2,21.3s0,0,0,0c1.4.9,1.9,1.9,1.9,1.9,0,0,0,0,0,0,.6-.1,1.1,0,1.1,0,.5,0,1,.5,1,.5.6.4,1.4.2,1.4.1,0,0,0,0,0,0-.2-.8-1-1.5-1-1.6-.9-1-.6-2.5-.6-2.5,0,0,0,0,0,0,0,0,0,0,0,0-1.2.4-1.3,1.5-1.3,1.9-1.4-1-2.4-.3-2.4-.3,0,0,0,0,0,0h0Z"/>
  <path class="st0" d="M25,25.7c1.4-.2,1.9-2.3,1.9-2.3.1-.5-.1-.7-.1-.7-.2,0-.3,0-.3,0-.3.2-.5,0-.5,0,0,0-.2,0-.2,0-.2,0-.2.1-.2.1,0,.2-.1.1-.1.1-.2,0-.1-.7-.1-.7,0-.4.1-.4.1-.4.4-.3,1.1-.2,1.1-.2.3,0,.2-.2.2-.2-.5-1.2-1.8-1-1.8-1,0,0-1.3-.1-1.8,1.1,0,0-.1.2.2.2,0,0,.5,0,1,.2,0,0,.2,0,.2.4,0,0,.1.7,0,.7,0,0-.1,0-.1-.1,0,0,0-.1-.2-.1,0,0-.1,0-.2,0,0,0-.2.2-.5,0,0,0-.2,0-.3,0,0,0-.2.2,0,.7,0,0,.5,2.2,2,2.2h0Z"/>
  <path class="st0" d="M24.1,22.1s-.4-.4-.9,0c0,0-.1.3,0,.4.1,0,.2,0,.2,0,0,0,.1-.2.3-.2,0,0,.2,0,.3.1,0,0,0,.1.2,0,0,0,0-.1,0-.3h0Z"/>
  <path class="st0" d="M25.8,22.4c0,0,.2,0,.2,0,0,0,.2-.1.3-.1.2,0,.3.2.3.2,0,0,0,.1.2,0,.2-.1.1-.3,0-.4-.5-.3-.9,0-.9,0-.1.1,0,.3,0,.3h0Z"/>
  <path class="st1" d="M25,23.9c.5,0,.4-.1.4-.1,0-.2-.4-.2-.4-.2,0,0-.4,0-.4.2,0,0-.1.2.4.1h0Z"/>
  <path class="st1" d="M24.3,24.3c0,.2.2.5.7.6.6-.1.7-.5.7-.7,0,0,0,0,0,0-.3.2-.6.1-.6.1,0,0-.4,0-.6,0,0,0,0,0,0,0h0Z"/>
  <path class="st0" d="M23.6,19.3c-1.3-1-2.3-1.1-2.3-1.1.5.7.6,1.5.6,1.5-.9-.5-1.7-.5-1.7-.5,0,0,1,.9,1.1,1.9,4.1-2.5,7.3,0,7.3,0,0-1,1-2.1,1-2.1,0,0-.8,0-1.7.6,0,0,0-.8.5-1.5,0,0-.9.2-2.2,1.2l-.6-1.5.8-.9h-1.2l-.6-1.2-.5,1.2h-1.2l.9.9-.3,1.5h0Z"/>
  <path class="st1" d="M24.1,19.3c0,0,0,.1,0,.1h1.4c.1,0,.1,0,0-.2l-.7-.6c0,0-.2,0-.3,0l-.6.7h0Z"/>
  <path class="st0" d="M20.7,21.5s-1.1-.6-2.4.4c0-.4-.2-1.5-1.4-1.9,0,0,0,0,0,0,0,0,0,0,0,0,0,0,.3,1.6-.5,2.5,0,0-.8.8-.9,1.6,0,0,0,0,0,0,0,0,.8.3,1.4-.2,0,0,.5-.5,1-.6,0,0,.5,0,1.1,0,0,0,0,0,0,0,0,0,.4-1,1.8-2,0,0,0,0,0,0,0,0,0,0,0,0h0Z"/>
  <path class="st0" d="M33.7,16.9l.8,1.1,1.5-1-1.1,1.8.8,1.2,1.2-2.2h2.2s-.6-1.1-.7-1.1h-1.9s1.1-1.1,1.1-1.1c0,0-.5-.8-.8-1.1l-3.3,2.6h0Z"/>
  <path class="st0" d="M31.1,13c-.5,1.1-1.2,1.3-2.4.8-1.2-.4-1.8-1-1.3-2.2l.8-2.3,1.3.5-.8,2.4c-.1.3.2.6.4.6.2,0,.6,0,.7-.2l.9-2.5,1.3.5-.8,2.4h0Z"/>
  <path class="st0" d="M22.8,9.1h2.5c.6,0,1.2,0,1.3.9,0,.7-.2.9-.9,1.1h0c.7,0,1,.2,1,1,0,.9-.6,1.1-1.6,1.1h-2.1c0,0-.1-4.2-.1-4.2h0Z"/>
  <path class="st1" d="M24.3,10.7h.6c.2,0,.4-.2.4-.4,0-.2-.1-.3-.4-.3h-.6s0,.7,0,.7h0Z"/>
  <path class="st1" d="M24.3,12.2h.6c.3,0,.5-.1.5-.4,0-.2-.1-.3-.4-.3h-.7s0,.7,0,.7h0Z"/>
  <path class="st0" d="M17.4,11l2-1c.7-.3,1.6-.5,2,.4.3.7.4,1.1-.2,1.7l1.6,1.2-1.5.4-1-.8h-.4c0,.1.4,1.2.4,1.2l-1.3.7-1.6-3.8h0Z"/>
  <path class="st1" d="M19.5,12.1l.4-.2c.3-.1.4-.3.3-.6-.1-.2-.3-.3-.6-.2l-.5.2.3.8h0Z"/>
  <polygon class="st0" points="16.7 15.4 15.8 16.1 16.2 17 15.2 18.2 13.3 13.9 14.8 12.5 18.7 14.8 17.6 15.8 16.7 15.4 16.7 15.4"/>
  <polygon class="st1" points="14.6 13.9 15.3 15.2 15.9 14.8 14.6 13.9 14.6 13.9"/>
  <polygon class="st0" points="10.2 18.8 12.1 15.6 13 16 12.3 17 14.9 18.6 14.3 19.7 11.6 18.1 10.9 19.2 10.2 18.8 10.2 18.8"/>
  <path class="st0" d="M9.9,19.5l.6.3s-.4.6-.5.8c0,.1-.1.2-.1.3,0,.5,0,.6.1.7,0,0,.4.1.6-.2,0,0,.2-.4.2-.4.5-.9,1.2-1.3,2-.9.8.4.8,1.8.3,2.8-.2.3-.3.5-.6.7l-.9-.4c.2-.2.7-.7.8-1.1.1-.3.2-.8-.1-.9-.2,0-.4.2-.6.4,0,0-.2.4-.2.4-.4.7-.9.9-1.5.7-.9-.2-1.2-1-.8-2.2.1-.3.4-1,.7-1.2h0Z"/>
  <path class="st0" d="M40.6,22.3h-.7s0-.7,0-1c0-.1,0-.2,0-.3-.1-.4-.3-.5-.5-.5,0,0-.4,0-.4.5,0,0,0,.4,0,.4,0,1-.4,1.7-1.3,1.7-.9,0-1.6-1.2-1.6-2.3,0-.3,0-.6.1-.9h1c0,.2-.2.9-.2,1.2,0,.4.2.8.5.7.2,0,.3-.3.3-.6,0,0,0-.4,0-.5,0-.8.3-1.2.9-1.4.9-.2,1.6.2,1.8,1.5,0,.4,0,1.1,0,1.4h0Z"/>
  <path class="st0" d="M35.3,14.3c-.2-.6-.4-.7-.6-.9-.5-.4-1.2-.4-1.7.2-.4.6,0,1.5.5,1.8.2,0,.4.2.7.2,0,0-.3.7-.3.7-.3,0-.9-.1-1.1-.3-1.1-.6-1.6-2-.6-3.2,0-.1.2-.2.3-.3.9-.8,2-.8,2.9,0,.2.2.6.8.7,1.1,0,0-.6.7-.6.7h0Z"/>
  <path class="st0" d="M16.8,35c-.2-.5-.4-.7-.7-.8-.6-.3-1.4-.3-1.7.4-.3.7.2,1.5.7,1.7.2,0,.4.1.7,0,0,0-.2.8-.2.8-.3,0-.9,0-1.1-.2-1.1-.5-1.8-1.8-1-3.2,0-.1.2-.3.3-.4.8-.8,1.9-1,2.8-.2.2.2.6.7.8,1,0,0-.5.8-.6.8h0Z"/>
  <path class="st0" d="M21.9,36.5l-1,4.1,1.3.3.3-1.5s1.4.2,1.6.2v-.9c0,0-1.1,0-1.5-.2l.2-.8s1.4.3,1.9.2v-1c0,0-1.3,0-2.9-.4h0Z"/>
  <path class="st0" d="M25.4,36.8l.2,4.2h1.3c0,0-.1-1.6-.1-1.6,0,0,1.4-.2,1.6-.3l-.2-.9s-1.2.3-1.6.2v-.8s1.4-.1,1.9-.4l-.2-1s-1.3.5-3,.5h0Z"/>
  <path class="st0" d="M30.4,40.1l-1.5-3.9c1.5-.6,2.7-1.4,2.7-1.4l.3.6c-.4.4-1.7.9-1.7.9l.2.8c.4,0,1.4-.7,1.4-.7l.4.8c-.2.2-1.5.8-1.5.8l.3.6c.5-.2,1.6-.9,1.6-.9l.5.7s-1.4,1.1-2.9,1.7h0Z"/>
  <path class="st0" d="M34.7,37.8l-2.6-3.3c1.3-1,2.2-2.1,2.2-2.1l.5.5c-.3.5-1.3,1.4-1.3,1.4l.5.6c.4-.2,1.2-1.1,1.2-1.1l.7.7c-.2.2-1.2,1.2-1.2,1.2l.5.5c.4-.4,1.3-1.3,1.3-1.3l.7.5s-1.1,1.5-2.3,2.5h0Z"/>
  <path class="st0" d="M18.6,35.1c-1.3,0-2.3,1-2.3,2.2s1,2.2,2.3,2.2,2.3-1,2.3-2.2-1-2.2-2.3-2.2h0Z"/>
  <path class="st1" d="M19.1,36.2c-.5-.2-1.1.2-1.3.8-.2.6,0,1.3.4,1.5.5.2,1.1-.2,1.3-.8.2-.6,0-1.3-.4-1.5h0Z"/>
</svg>