<?xml version="1.0" encoding="iso-8859-1"?>
<!-- Generator: Adobe Illustrator 19.0.0, SVG Export Plug-In . SVG Version: 6.00 Build 0)  -->
<svg version="1.1" id="Capa_1" xmlns="http://www.w3.org/2000/svg" xmlns:xlink="http://www.w3.org/1999/xlink" x="0px" y="0px"
	 viewBox="0 0 512 512" style="enable-background:new 0 0 512 512;" xml:space="preserve">
<g>
	<g>
		<path d="M452,60H60C26.916,60,0,86.916,0,120v272c0,33.084,26.916,60,60,60h392c33.084,0,60-26.916,60-60V120
			C512,86.916,485.084,60,452,60z M482,392c0,16.542-13.458,30-30,30H60c-16.542,0-30-13.458-30-30V250h452V392z M482,220H30v-40
			h452V220z M482,150H30v-30c0-16.542,13.458-30,30-30h392c16.542,0,30,13.458,30,30V150z"/>
	</g>
</g>
<g>
	<g>
		<rect x="331.33" y="332" width="90.67" height="30"/>
	</g>
</g>
<g>
	<g>
		<rect x="210.67" y="332" width="90.67" height="30"/>
	</g>
</g>
<g>
	<g>
		<rect x="90" y="332" width="90.67" height="30"/>
	</g>
</g>
<g>
</g>
<g>
</g>
<g>
</g>
<g>
</g>
<g>
</g>
<g>
</g>
<g>
</g>
<g>
</g>
<g>
</g>
<g>
</g>
<g>
</g>
<g>
</g>
<g>
</g>
<g>
</g>
<g>
</g>
</svg>
