<?xml version="1.0" encoding="UTF-8"?>
<svg id="Capa_1" xmlns="http://www.w3.org/2000/svg" version="1.1" viewBox="0 0 32 32">
  <!-- Generator: Adobe Illustrator 29.3.1, SVG Export Plug-In . SVG Version: 2.1.0 Build 151)  -->
  <defs>
    <style>
      .st0 {
        fill: #fff;
      }
    </style>
  </defs>
  <path class="st0" d="M2,15.5c0,.6.4,1,1,1h3c.6,0,1-.4,1-1s-.4-1-1-1h-3c-.6,0-1,.4-1,1Z"/>
  <path class="st0" d="M7.5,5.6c-.4-.3-1.1-.3-1.4.2-.3.4-.3.9,0,1.2l2.1,2.1c.2.2.4.3.7.3.3,0,.5-.1.7-.3.4-.4.4-1,0-1.4,0,0,0,0,0,0l-2.1-2.1Z"/>
  <path class="st0" d="M6.8,25.7c.3,0,.5-.1.7-.3l2.1-2.1c.4-.4.4-1,0-1.4s-1-.4-1.4,0l-2.1,2.1c-.4.4-.4,1,0,1.4.2.2.4.3.7.3Z"/>
  <path class="st0" d="M17,5.5v-3c0-.6-.4-1-1-1s-1,.4-1,1v3c0,.6.4,1,1,1s1-.4,1-1Z"/>
  <path class="st0" d="M17,28.5v-3c0-.6-.4-1-1-1s-1,.4-1,1v3c0,.6.4,1,1,1s1-.4,1-1Z"/>
  <path class="st0" d="M29,14.5h-3c-.6,0-1,.4-1,1s.4,1,1,1h3c.6,0,1-.4,1-1s-.4-1-1-1Z"/>
  <path class="st0" d="M23.8,21.9c-.4-.4-1-.4-1.4,0s-.4,1,0,1.4l2.1,2.1c.2.2.4.3.7.3.3,0,.5-.1.7-.3.4-.4.4-1,0-1.4l-2.1-2.1Z"/>
  <path class="st0" d="M23.8,9.1l2.1-2.1c.4-.3.5-1,.2-1.4-.3-.4-1-.5-1.4-.2,0,0-.1.1-.2.2l-2.1,2.1c-.4.4-.4,1,0,1.4,0,0,0,0,0,0,.2.2.4.3.7.3.3,0,.5-.1.7-.3Z"/>
  <circle class="st0" cx="16" cy="15.5" r="8"/>
</svg>