<svg id="Layer_1" enable-background="new 0 0 512 512" height="512" viewBox="0 0 512 512" width="512" xmlns="http://www.w3.org/2000/svg"><path d="m340.353 0h-258.973c-20.144 0-36.531 16.388-36.531 36.531v438.938c0 20.143 16.388 36.53 36.531 36.53h258.974c20.143 0 36.531-16.388 36.531-36.53v-107.966c0-4.418-3.582-8-8-8s-8 3.582-8 8v45.101h-300.036v-308.815h300.035v40.513c0 4.418 3.582 8 8 8s8-3.582 8-8v-107.771c0-20.143-16.388-36.531-36.531-36.531zm20.531 428.603v46.866c0 11.32-9.21 20.53-20.531 20.53h-258.973c-11.321 0-20.531-9.21-20.531-20.53v-46.866zm-300.035-340.814v-51.258c0-11.321 9.21-20.531 20.531-20.531h258.974c11.321 0 20.531 9.21 20.531 20.531v51.258zm210.69-35.895c0 4.418-3.582 8-8 8h-105.346c-4.418 0-8-3.582-8-8s3.582-8 8-8h105.346c4.418 0 8 3.582 8 8zm-97.784 410.408c0-4.418 3.582-8 8-8h58.223c4.418 0 8 3.582 8 8s-3.582 8-8 8h-58.223c-4.418 0-8-3.583-8-8zm-59.943-208.488c0 53.516 43.539 97.055 97.055 97.055s97.055-43.539 97.055-97.055c0-53.517-43.539-97.055-97.055-97.055-53.517 0-97.055 43.539-97.055 97.055zm178.109 0c0 44.693-36.361 81.055-81.055 81.055s-81.055-36.361-81.055-81.055 36.361-81.055 81.055-81.055 81.055 36.361 81.055 81.055zm-81.055-55.311c4.418 0 8 3.582 8 8v2.844c10.906 3.412 18.843 13.609 18.843 25.625 0 4.418-3.582 8-8 8s-8-3.582-8-8c0-5.979-4.864-10.843-10.843-10.843s-10.843 4.864-10.843 10.843 4.864 10.843 10.843 10.843c14.801 0 26.843 12.042 26.843 26.843 0 12.016-7.937 22.212-18.843 25.624v2.845c0 4.418-3.582 8-8 8s-8-3.582-8-8v-2.845c-10.906-3.412-18.843-13.608-18.843-25.624 0-4.418 3.582-8 8-8s8 3.582 8 8c0 5.979 4.864 10.842 10.843 10.842s10.843-4.863 10.843-10.842-4.864-10.843-10.843-10.843c-14.801 0-26.843-12.042-26.843-26.843 0-12.016 7.937-22.213 18.843-25.625v-2.844c0-4.418 3.582-8 8-8zm126.587 14.515h102.385l-21.325-21.325c-3.124-3.124-3.124-8.189 0-11.313s8.189-3.124 11.313 0l34.982 34.981c3.124 3.125 3.124 8.189 0 11.314l-34.982 34.982c-1.562 1.562-3.61 2.343-5.657 2.343s-4.095-.781-5.657-2.343c-3.124-3.124-3.124-8.189 0-11.314l21.325-21.325h-102.384c-4.418 0-8-3.582-8-8s3.582-8 8-8zm121.698 85.964h-102.384l21.325 21.324c3.124 3.125 3.124 8.189 0 11.314-1.562 1.562-3.609 2.343-5.657 2.343s-4.095-.781-5.657-2.343l-34.982-34.981c-1.5-1.501-2.343-3.535-2.343-5.657s.843-4.156 2.343-5.657l34.982-34.981c3.124-3.123 8.189-3.123 11.313 0 3.124 3.125 3.124 8.189 0 11.314l-21.325 21.324h102.384c4.418 0 8 3.582 8 8s-3.581 8-7.999 8z"/></svg>