<svg id="Layer_1" height="512" viewBox="0 0 512 512" width="512" xmlns="http://www.w3.org/2000/svg"><g><path d="m435.7 59.7c-64.4-11.1-131.2-11.1-195.6 0-43 7.4-74.3 44.7-74.3 88.8v271.1h41v16.4c0 13.6 11 24.6 24.6 24.6h16.4c13.6 0 24.6-11 24.6-24.6v-16.4h139.3v16.4c0 13.6 11 24.6 24.6 24.6h16.4c13.6 0 24.6-11 24.6-24.6v-16.4h32.7v-271.1c0-44-31.2-81.4-74.3-88.8zm-179.7 376.3c0 4.5-3.7 8.2-8.2 8.2h-16.4c-4.5 0-8.2-3.7-8.2-8.2v-16.4h32.8zm204.8 0c0 4.5-3.7 8.2-8.2 8.2h-16.4c-4.5 0-8.2-3.7-8.2-8.2v-16.4h32.8zm32.8-32.8h-311.3v-254.7c0-36.1 25.5-66.6 60.6-72.6 62.6-10.7 127.5-10.7 190.1 0 35.1 6 60.6 36.6 60.6 72.6z"/><path d="m206.8 280.3h262.2v-131.1h-262.2zm139.3-114.7h106.5v98.3h-106.5zm-122.9 0h106.5v98.3h-106.5z"/><path d="m272.4 100h131.1v16.4h-131.1z"/><path d="m256 304.9c-18.1 0-32.8 14.7-32.8 32.8s14.7 32.8 32.8 32.8 32.8-14.7 32.8-32.8-14.7-32.8-32.8-32.8zm0 49.1c-9 0-16.4-7.3-16.4-16.4 0-9 7.4-16.4 16.4-16.4s16.4 7.3 16.4 16.4-7.4 16.4-16.4 16.4z"/><path d="m419.9 304.9c-18.1 0-32.8 14.7-32.8 32.8s14.7 32.8 32.8 32.8 32.8-14.7 32.8-32.8c-.1-18.1-14.8-32.8-32.8-32.8zm0 49.1c-9 0-16.4-7.3-16.4-16.4 0-9 7.4-16.4 16.4-16.4s16.4 7.3 16.4 16.4-7.4 16.4-16.4 16.4z"/><path d="m305.2 329.5h65.5v16.4h-65.5z"/><path d="m2 288.5h65.5v155.7h-41v16.4h98.3v-16.4h-41v-155.7h65.5v-114.7h-147.3zm16.4-98.3h114.7v81.9h-114.7z"/></g></svg>