<svg fill="none" height="512" viewBox="0 0 24 24" width="512" xmlns="http://www.w3.org/2000/svg"><g clip-rule="evenodd" fill="rgb(0,0,0)" fill-rule="evenodd"><path d="m12 10c1.6568 0 3-1.34315 3-3s-1.3432-3-3-3c-1.6569 0-3.00005 1.34315-3.00005 3s1.34315 3 3.00005 3zm0 1.5c2.4852 0 4.5-2.01472 4.5-4.5s-2.0148-4.5-4.5-4.5c-2.48533 0-4.50005 2.01472-4.50005 4.5s2.01472 4.5 4.50005 4.5z"/><path d="m5.00247 15.1936c-.19018-1.4263.91941-2.6936 2.35832-2.6936h9.27831c1.4389 0 2.5485 1.2673 2.3583 2.6936l-.0271.2038c-.4658 3.4935-3.4459 6.1026-6.9703 6.1026-3.52451 0-6.50456-2.6091-6.97037-6.1026zm2.35832-1.1936c-.53173 0-.94176.4683-.87148.9954l.02716.2037c.36645 2.7484 2.71083 4.8009 5.48353 4.8009 2.7726 0 5.117-2.0525 5.4834-4.8009l.0272-.2037c.0703-.5271-.3398-.9954-.8715-.9954z"/></g></svg>