<svg id="Layer_1" enable-background="new 0 0 64 64" viewBox="0 0 64 64" xmlns="http://www.w3.org/2000/svg"><g fill="rgb(0,0,0)"><path d="m58.11 6.78c0-3.74-3.04-6.78-6.78-6.78h-38.66c-3.74 0-6.78 3.04-6.78 6.78v50.44c0 3.74 3.04 6.78 6.78 6.78h38.66c3.74 0 6.78-3.04 6.78-6.78zm-3.15 50.44c0 2-1.63 3.63-3.63 3.63h-38.66c-2 0-3.63-1.63-3.63-3.63v-50.44c0-2 1.63-3.63 3.63-3.63h38.66c2 0 3.63 1.63 3.63 3.63z"/><path d="m32 8.08c-9.91 0-17.98 8.06-17.98 17.97s8.06 17.98 17.98 17.98c9.91 0 17.98-8.06 17.98-17.98 0-9.9-8.07-17.97-17.98-17.97zm14.74 16.4h-6.33c-.18-4.52-1.15-9.02-2.84-12.16 4.96 2.02 8.59 6.64 9.17 12.16zm-14.74 16.41c-2.08 0-4.94-5-5.27-13.25h10.53c-.32 8.24-3.18 13.25-5.26 13.25zm-5.26-16.41c.33-8.25 3.18-13.25 5.27-13.25 2.08 0 4.94 5 5.26 13.25zm-.31-12.16c-1.69 3.14-2.66 7.64-2.84 12.16h-6.33c.58-5.52 4.21-10.14 9.17-12.16zm-9.17 15.31h6.33c.18 4.52 1.15 9.02 2.84 12.16-4.96-2.02-8.59-6.64-9.17-12.16zm20.31 12.16c1.69-3.14 2.66-7.64 2.84-12.16h6.33c-.58 5.52-4.21 10.14-9.17 12.16z"/><path d="m20.5 50.51h23v3.15h-23z"/></g></svg>