<?xml version="1.0" encoding="UTF-8"?>
<svg id="Capa_1" data-name="Capa 1" xmlns="http://www.w3.org/2000/svg" viewBox="0 0 50 50">
  <defs>
    <style>
      .cls-1 {
        fill: #fff;
      }
    </style>
  </defs>
  <path class="cls-1" d="M26.66,47.26c-12.28,0-22.26-9.99-22.26-22.26S14.39,2.74,26.66,2.74c5.61,0,10.97,2.09,15.09,5.89l-3.09,3.35c-3.28-3.02-7.54-4.69-12-4.69-9.77,0-17.71,7.95-17.71,17.71s7.95,17.71,17.71,17.71c5.89,0,11.38-2.92,14.69-7.81l3.77,2.55c-4.15,6.15-11.05,9.81-18.46,9.81Z"/>
  <path class="cls-1" d="M22,33.08l-1.6,2.77c-.59.18-1.2.32-1.83.42-.79-.57-1.52-1.22-2.16-1.93-2.29-2.52-3.62-5.85-3.62-9.34,0-5.88,3.72-11.14,9.27-13.09l1.51,4.29c-3.73,1.31-6.23,4.85-6.23,8.8,0,2.34.89,4.57,2.42,6.26.64.71,1.39,1.33,2.24,1.82Z"/>
  <path class="cls-1" d="M26.66,38.88v-4.55c5.14,0,9.33-4.18,9.33-9.33h4.55c0,7.65-6.23,13.88-13.88,13.88Z"/>
  <path class="cls-1" d="M30.28,22.56c0,6.27-4.17,11.58-9.89,13.29-.59.18-1.2.32-1.83.42-.79-.57-1.52-1.22-2.16-1.93v-2.45c1.18,0,2.31-.22,3.36-.62,3.49-1.35,5.97-4.74,5.97-8.7h4.55Z"/>
</svg>