<?xml version="1.0" encoding="UTF-8"?>
<svg id="Capa_1" data-name="Capa 1" xmlns="http://www.w3.org/2000/svg" viewBox="0 0 134.31 44.52">
  <defs>
    <style>
      .cls-1 {
        fill: #fff;
      }

      .cls-2 {
        isolation: isolate;
      }
    </style>
  </defs>
  <g>
    <path class="cls-1" d="M22.26,44.52C9.98,44.52,0,34.53,0,22.26S9.99,0,22.26,0c5.61,0,10.97,2.09,15.09,5.89l-3.09,3.35c-3.28-3.02-7.54-4.69-12-4.69-9.77,0-17.71,7.95-17.71,17.71s7.95,17.71,17.71,17.71c5.89,0,11.38-2.92,14.69-7.81l3.77,2.55c-4.15,6.15-11.05,9.81-18.46,9.81Z"/>
    <path class="cls-1" d="M17.6,30.34l-1.6,2.77c-.59.18-1.2.32-1.83.42-.79-.57-1.52-1.22-2.16-1.93-2.29-2.52-3.62-5.85-3.62-9.34,0-5.88,3.72-11.14,9.27-13.09l1.51,4.29c-3.73,1.31-6.23,4.85-6.23,8.8,0,2.34.89,4.57,2.42,6.26.64.71,1.39,1.33,2.24,1.82Z"/>
    <path class="cls-1" d="M22.26,36.13v-4.55c5.14,0,9.33-4.18,9.33-9.33h4.55c0,7.65-6.23,13.88-13.88,13.88Z"/>
    <path class="cls-1" d="M25.88,19.82c0,6.27-4.17,11.58-9.89,13.29-.59.18-1.2.32-1.83.42-.79-.57-1.52-1.22-2.16-1.93v-2.45c1.18,0,2.31-.22,3.36-.62,3.49-1.35,5.97-4.74,5.97-8.7h4.55Z"/>
  </g>
  <g class="cls-2">
    <g class="cls-2">
      <path class="cls-1" d="M67.79,22.04c.78,1.01,1.17,2.17,1.17,3.47,0,1.92-.66,3.42-1.98,4.51s-3.18,1.63-5.57,1.63h-11.17V9.1h10.82c2.3,0,4.11.51,5.42,1.54,1.31,1.02,1.97,2.46,1.97,4.32,0,1.32-.35,2.43-1.04,3.31-.69.88-1.62,1.49-2.77,1.81,1.32.3,2.37.96,3.15,1.97ZM56.51,18.06h3.17c1.58,0,2.37-.65,2.37-1.95s-.79-2.02-2.37-2.02h-3.17v3.97ZM62.53,24.62c0-.68-.21-1.21-.62-1.57-.42-.36-1.01-.54-1.78-.54h-3.62v4.1h3.65c1.58,0,2.37-.66,2.37-1.98Z"/>
      <path class="cls-1" d="M71.7,17.8c.67-1.39,1.59-2.45,2.75-3.2,1.16-.75,2.46-1.12,3.89-1.12,1.24,0,2.3.25,3.2.74.9.49,1.59,1.15,2.08,1.98v-2.5h6.27v17.95h-6.27v-2.5c-.49.83-1.19,1.49-2.1,1.98-.91.49-1.97.74-3.18.74-1.43,0-2.73-.37-3.89-1.12-1.16-.75-2.08-1.82-2.75-3.22-.67-1.4-1.01-3.02-1.01-4.88s.34-3.48,1.01-4.86ZM82.67,19.95c-.63-.66-1.4-.99-2.32-.99s-1.72.33-2.34.98c-.62.65-.93,1.56-.93,2.74s.31,2.06.93,2.74,1.4,1.01,2.34,1.01,1.69-.33,2.32-.99c.63-.66.94-1.58.94-2.75s-.32-2.06-.94-2.72Z"/>
      <path class="cls-1" d="M110.15,15.61c1.22,1.38,1.82,3.24,1.82,5.58v10.46h-6.27v-9.63c0-1.02-.27-1.83-.8-2.42s-1.25-.88-2.14-.88c-.94,0-1.67.29-2.21.88-.53.59-.8,1.39-.8,2.42v9.63h-6.27V13.71h6.27v2.56c.55-.81,1.3-1.47,2.24-1.97.94-.5,2.02-.75,3.23-.75,2.07,0,3.71.69,4.93,2.06Z"/>
      <path class="cls-1" d="M126.66,31.66l-4.96-7.36v7.36h-6.27V7.98h6.27v12.77l4.96-7.04h7.52l-7.07,9.02,7.2,8.93h-7.65Z"/>
    </g>
  </g>
</svg>